<svg xmlns="http://www.w3.org/2000/svg" xml:space="preserve" viewBox="0 0 512 120"><path d="M21 1 2 95h53c61-13 58-83 18-93Zm20 21h22c27 11 10 53-8 53l-24 1Z" style="fill:#2b4698;fill-opacity:1;stroke:none;stroke-width:.593334;stroke-linecap:round;stroke-linejoin:round;stroke-dasharray:none;stroke-opacity:1"/><path d="M118 23h22l-8 44c3 14 20 11 27 0l9-45 23 1-14 73-23-2 1-8c-17 16-37 9-43 0-5-6-5-14-3-21z" style="fill:#2b4698;fill-opacity:1;stroke:none;stroke-width:.525073;stroke-linecap:round;stroke-linejoin:round;stroke-dasharray:none;stroke-opacity:1"/><path d="m279 55 16-17a50 50 0 0 0-53-14c-23 9-43 30-37 64 6 21 26 34 52 30 12-3 22-8 31-16l-13-16c-8 11-24 14-33 9-21-10-16-41 0-48 12-8 30-4 37 8z" style="fill:#7f8a94;fill-opacity:1;stroke:none;stroke-width:.525073;stroke-linecap:round;stroke-linejoin:round;stroke-dasharray:none;stroke-opacity:1"/><path d="M308 55c-16 15-19 54 16 63 18 3 29-3 39-11l-12-12c-13 8-31 8-31-7h50c1-14 1-24-6-33-12-15-44-13-56 0zm31 5c6 0 10 4 10 14h-28c2-7 11-14 18-14z" style="fill:#7f8a94;fill-opacity:1;stroke:none;stroke-width:.525073;stroke-dasharray:none"/><path d="M391 44h23l-1 9c12-12 39-14 45 6 30-31 58-8 52 16l-8 43-25-1 9-45c-2-9-14-13-25 0l-10 45h-24l9-45c-4-9-15-12-24-1l-11 46h-25z" style="fill:#7f8a94;fill-opacity:1;stroke:none;stroke-width:.525073;stroke-linecap:round;stroke-linejoin:round;stroke-dasharray:none"/></svg>