<svg xmlns="http://www.w3.org/2000/svg" viewBox="0 0 32 16"><defs/><defs><linearGradient id="b" x1="0" x2="1" y1="0" y2="0" gradientTransform="scale(-208.9513 208.9513) rotate(-84.23 .64 3.17)" gradientUnits="userSpaceOnUse" spreadMethod="pad"><stop offset="0" stop-color="#162d66"/><stop offset=".13" stop-color="#162d66"/><stop offset="1" stop-color="#254aa5"/></linearGradient><linearGradient id="d" x1="0" x2="1" y1="0" y2="0" gradientTransform="scale(191.668 -191.668) rotate(-57.53 -2.5 -5.46)" gradientUnits="userSpaceOnUse" spreadMethod="pad"><stop offset="0" stop-color="#ed1c24"/><stop offset=".15" stop-color="#ed1c24"/><stop offset=".84" stop-color="#c4161d"/><stop offset="1" stop-color="#c4161d"/></linearGradient><linearGradient id="f" x1="0" x2="1" y1="0" y2="0" gradientTransform="scale(192.7623 -192.7623) rotate(-66.23 -1.33 -4)" gradientUnits="userSpaceOnUse" spreadMethod="pad"><stop offset="0" stop-color="#f1ce04"/><stop offset=".18" stop-color="#f1ce04"/><stop offset=".94" stop-color="#d0b103"/><stop offset="1" stop-color="#d0b103"/></linearGradient><clipPath id="a" clipPathUnits="userSpaceOnUse"><path d="M1042.82 538.18L196.3 803.23 0 544.95z"/></clipPath><clipPath id="c" clipPathUnits="userSpaceOnUse"><path d="M1068.83 562.35l-533.85 708.1-308.6-93.77z"/></clipPath><clipPath id="e" clipPathUnits="userSpaceOnUse"><path d="M1055.12 550.6l-724.6 511.31L65.28 878.36z"/></clipPath></defs><path fill="#254aa5" d="M18.74 9.94H13.8c-.1 0-.22-.02-.22-.22V2c0-.2.13-.22.22-.22h4.7c.1 0 .23.03.23.22v1c0 .2-.12.22-.22.22h-2.84c-.05 0-.13.02-.13.14v1.5c0 .1.08.14.13.14h2.21c.1 0 .22.03.22.22v1c0 .2-.12.22-.22.22h-2.21c-.05 0-.13.02-.13.14v1.8c0 .1.08.14.13.14h3.08c.1 0 .22.02.22.22v1c0 .19-.12.21-.22.21M22.38 10.06a4.29 4.29 0 01-2.23-.45c-.12-.07-.14-.16-.14-.3v-.97c0-.1.02-.2.17-.2.1 0 .17.05.25.1.21.12.78.44 1.74.44.66 0 1.29-.11 1.29-.8 0-.49-.3-.68-.66-.9l-1.39-.86c-.46-.3-1.26-.8-1.26-2.2 0-1.8 1.58-2.22 2.97-2.22.7 0 1.44.13 1.94.44.13.07.15.16.15.3v1c0 .1-.02.2-.17.2-.12 0-.18-.07-.28-.12-.58-.3-.95-.45-1.67-.45-.54 0-1.1.13-1.1.73 0 .46.3.67.67.86l1.1.6c.95.53 1.56 1.03 1.56 2.38 0 1.76-1.3 2.42-2.94 2.42M31.68 3.23h-2.6c-.04 0-.12.02-.12.15v1.74c0 .1.08.14.13.14h2.11c.1 0 .22.03.22.22v1c0 .2-.12.22-.22.22H29.1c-.05 0-.13.02-.13.14v2.9c0 .2-.12.23-.22.23h-1.52c-.1 0-.22-.03-.22-.23V2.02c0-.2.13-.22.22-.22h4.46c.1 0 .22.02.22.22V3c0 .2-.12.22-.22.22"/><path fill="#231f20" d="M1.97 13.02h-.93c-.02 0-.04 0-.04-.04v-1.46c0-.03.02-.04.04-.04h.89c.02 0 .04 0 .04.04v.19c0 .04-.02.04-.04.04h-.54s-.02 0-.02.03v.28c0 .02.01.03.02.03h.42c.02 0 .04 0 .04.04v.19c0 .03-.02.04-.04.04H1.4s-.02 0-.02.03v.33c0 .02.01.03.02.03h.58c.02 0 .05 0 .05.04v.19c0 .04-.03.04-.05.04M3.44 13.02h-.26c-.02 0-.03-.01-.03-.03 0 0 0-.02-.02-.02a.24.24 0 00-.09.03.67.67 0 01-.23.04c-.13 0-.25-.03-.32-.11-.08-.09-.09-.19-.09-.38v-.66c0-.04.02-.04.04-.04h.27c.01 0 .04 0 .04.04v.64c0 .1 0 .16.03.2.04.04.1.06.17.06.04 0 .09-.01.12-.03.05-.02.07-.05.07-.1v-.77c0-.04.02-.04.04-.04h.26c.02 0 .05 0 .05.04v1.09c0 .04-.03.04-.05.04M4.7 12.13c-.04 0-.06-.02-.18-.02-.19 0-.21.1-.21.19v.68c0 .04-.02.04-.04.04H4c-.01 0-.04 0-.04-.04v-1.09c0-.04.03-.04.04-.04h.26c.03 0 .03.01.03.03v.02s.01.02.03.02c.07 0 .12-.09.29-.09.1 0 .11.04.11.08v.19c0 .02 0 .03-.03.03M5.59 12.06c-.21 0-.25.18-.25.38s.04.37.25.37c.2 0 .25-.18.25-.38s-.04-.37-.25-.37zm0 .98c-.4 0-.61-.24-.61-.6 0-.35.2-.61.61-.61.4 0 .6.24.6.6 0 .35-.19.61-.6.61M7.14 12.07c-.04 0-.08 0-.11.02-.05.03-.08.05-.08.13v.45c0 .06.03.09.08.1.03.02.07.03.1.03.1 0 .3-.04.3-.37 0-.22-.08-.36-.3-.36zm.1.97c-.17 0-.25-.06-.27-.06-.01 0-.02.01-.02.03v.44c0 .04-.02.04-.04.04h-.27c-.01 0-.04 0-.04-.04v-1.56c0-.04.03-.04.04-.04h.26c.03 0 .03.01.03.03l.03.01c.05 0 .12-.06.3-.06.33 0 .53.23.53.6 0 .4-.23.61-.56.61M8.89 11.7c-.1 0-.15-.03-.15-.13s.06-.13.15-.13c.1 0 .14.03.14.13s-.05.14-.14.14zm-.07.75c0-.02 0-.02-.02-.02h-.03l-.14.06c-.07.02-.16.06-.16.17 0 .1.06.15.18.15.04 0 .1-.02.13-.04.02-.01.04-.04.04-.1zm-.34-.74c-.1 0-.15-.04-.15-.14s.06-.13.15-.13.14.03.14.13-.05.14-.14.14zm.64 1.31h-.25c-.03 0-.03-.01-.03-.03 0 0 0-.02-.03-.02-.05 0-.13.07-.3.07-.32 0-.39-.19-.39-.34 0-.22.12-.32.36-.4l.27-.07c.03-.01.07-.02.07-.07 0-.07-.05-.1-.21-.1-.2 0-.32.07-.34.08l-.04.02c-.02 0-.03-.02-.03-.04v-.15c0-.03 0-.05.03-.06.09-.06.3-.08.43-.08.3 0 .38.09.4.12.07.06.1.14.1.3v.73c0 .04-.02.04-.04.04M9.93 13.02h-.26c-.02 0-.05 0-.05-.04v-1.09c0-.04.03-.04.05-.04h.26c.02 0 .04 0 .04.04v1.09c0 .04-.02.04-.04.04zM9.8 11.7c-.13 0-.2-.05-.2-.15 0-.1.08-.15.2-.15.12 0 .2.05.2.15 0 .1-.08.15-.2.15M10.76 13.04c-.23 0-.33-.05-.36-.07-.02-.02-.02-.03-.02-.06v-.14c0-.02 0-.04.03-.04l.04.01c.08.05.18.07.3.07.06 0 .14-.01.14-.09 0-.06-.07-.09-.1-.11l-.16-.09c-.14-.08-.23-.15-.23-.32 0-.27.2-.37.44-.37.14 0 .28.03.32.06.03.02.03.03.03.06v.15c0 .02 0 .03-.04.03h-.03a.45.45 0 00-.24-.07c-.08 0-.16 0-.16.08 0 .06.06.09.1.11l.15.08c.13.08.24.16.24.34 0 .21-.15.37-.45.37M12.52 12.97a.83.83 0 01-.37.07c-.54 0-.6-.39-.6-.6 0-.21.07-.61.63-.61.13 0 .3.03.34.06.03.02.03.03.03.06v.17c0 .01 0 .03-.04.03h-.03a.45.45 0 00-.25-.08c-.26 0-.32.19-.32.38 0 .18.07.34.3.34.11 0 .19-.02.27-.06l.03-.02c.03 0 .04.02.04.04v.16c0 .03 0 .04-.03.06M14.01 13.02h-.26c-.02 0-.04 0-.04-.04v-.64c0-.1-.01-.15-.04-.2-.04-.04-.1-.06-.17-.06a.3.3 0 00-.12.02c-.04.03-.07.06-.07.12v.76c0 .04-.03.04-.04.04h-.26c-.01 0-.04 0-.04-.04v-1.55c0-.05.03-.05.04-.05h.26c.01 0 .04 0 .04.05v.45l.02.03c.03 0 .13-.08.31-.08.13 0 .25.03.32.11.08.09.1.19.1.38v.66c0 .04-.03.04-.05.04M15 12.04c-.13 0-.22.09-.22.23 0 .01 0 .02.03.02h.39c.02 0 .03 0 .03-.03 0-.18-.13-.22-.23-.22zm.53.46h-.7c-.02 0-.04.01-.04.03 0 .2.14.28.34.28.15 0 .26-.05.3-.07l.04-.01c.03 0 .03.02.03.03v.15c0 .03 0 .04-.02.06-.06.04-.22.07-.4.07-.33 0-.65-.13-.65-.6 0-.43.25-.61.58-.61.5 0 .56.33.56.57v.06c0 .04-.02.04-.04.04M16.7 12.13c-.03 0-.05-.02-.17-.02-.18 0-.2.1-.2.19v.68c0 .04-.03.04-.05.04h-.26c-.02 0-.04 0-.04-.04v-1.09c0-.04.02-.04.04-.04h.25c.03 0 .04.01.04.03v.02s0 .02.02.02c.07 0 .12-.09.3-.09.1 0 .1.04.1.08v.19c0 .02 0 .03-.02.03M18.2 13.04a.8.8 0 01-.42-.09c-.02-.01-.03-.03-.03-.05v-.19c0-.01 0-.03.04-.03.02 0 .03 0 .04.02.04.02.15.08.33.08.13 0 .24-.02.24-.15 0-.1-.05-.13-.12-.17l-.26-.16a.44.44 0 01-.24-.42c0-.34.3-.42.56-.42.13 0 .27.03.37.09.02.01.02.03.02.05v.2c0 .01 0 .03-.03.03l-.05-.02a.57.57 0 00-.32-.09c-.1 0-.2.03-.2.14 0 .09.05.12.12.16l.2.11c.19.1.3.2.3.45 0 .33-.24.46-.55.46M19.7 12.06c-.2 0-.24.18-.24.38s.04.37.25.37c.2 0 .24-.18.24-.38s-.04-.37-.25-.37zm0 .98c-.4 0-.6-.24-.6-.6 0-.35.2-.61.6-.61.4 0 .62.24.62.6 0 .35-.2.61-.62.61M21.56 13.02h-.88c-.02 0-.04 0-.04-.04v-.14c0-.03 0-.06.02-.08l.48-.64.01-.02c0-.02 0-.02-.03-.02h-.42c-.01 0-.04 0-.04-.04v-.15c0-.04.03-.04.04-.04h.84c.02 0 .04 0 .04.04v.12c0 .04 0 .06-.02.08l-.49.66-.01.02c0 .02 0 .02.03.02h.47c.02 0 .05 0 .05.04v.15c0 .04-.03.04-.05.04M22.3 13.02h-.26c-.01 0-.04 0-.04-.04v-1.09c0-.04.03-.04.04-.04h.27c.02 0 .04 0 .04.04v1.09c0 .04-.02.04-.04.04zm-.12-1.33c-.13 0-.2-.05-.2-.15 0-.1.07-.15.2-.15.12 0 .19.05.19.15 0 .1-.07.15-.2.15M23.46 12.45c0-.02 0-.02-.02-.02h-.04l-.13.06c-.07.02-.16.06-.16.17 0 .1.05.15.17.15.05 0 .1-.02.13-.04.03-.01.05-.04.05-.1zm.3.57h-.25c-.03 0-.04-.01-.04-.03 0 0 0-.02-.02-.02-.05 0-.13.07-.3.07-.32 0-.4-.19-.4-.34 0-.22.12-.32.37-.4l.26-.07c.04-.01.08-.02.08-.07 0-.07-.05-.1-.22-.1-.2 0-.31.07-.34.08l-.03.02c-.02 0-.03-.02-.03-.04v-.15c0-.03 0-.05.02-.06a1 1 0 01.44-.08c.29 0 .38.09.4.12.07.06.1.14.1.3v.73c0 .04-.03.04-.05.04M24.57 13.02h-.27c-.02 0-.04 0-.04-.04v-1.55c0-.04.02-.05.04-.05h.27c.01 0 .04.01.04.05v1.55c0 .04-.03.04-.04.04M25.67 12.08h-.17c-.01 0-.02 0-.02.03v.87c0 .04-.03.04-.04.04h-.27c-.02 0-.04 0-.04-.04v-.87c0-.02-.01-.03-.02-.03h-.1c-.02 0-.04 0-.04-.04v-.15c0-.04.02-.04.04-.04h.1s.02 0 .02-.03v-.06c0-.1 0-.15.02-.2.07-.16.23-.19.32-.19.13 0 .24.03.24.09v.14c0 .02-.02.03-.03.03l-.1-.02c-.05 0-.08.02-.1.07v.14c0 .02 0 .03.02.03h.17c.01 0 .04 0 .04.04v.15c0 .03-.03.04-.04.04M26.58 12.06c-.2 0-.25.18-.25.38s.05.37.25.37c.21 0 .25-.18.25-.38s-.04-.37-.25-.37zm0 .98c-.4 0-.6-.24-.6-.6 0-.35.2-.61.6-.61.4 0 .61.24.61.6 0 .35-.2.61-.6.61M28.64 13.02h-.26c-.02 0-.05 0-.05-.04v-.64c0-.1 0-.15-.03-.2-.04-.04-.1-.06-.17-.06a.3.3 0 00-.12.02c-.04.03-.07.06-.07.12v.76c0 .04-.02.04-.04.04h-.26c-.02 0-.04 0-.04-.04v-1.09c0-.04.02-.04.04-.04h.26c.03 0 .03.01.03.03l.03.01c.02 0 .06 0 .08-.02a.67.67 0 01.23-.04c.13 0 .25.03.32.11.08.09.1.19.1.38v.66c0 .04-.03.04-.05.04M29.91 12.2c0-.07-.03-.09-.08-.1a.27.27 0 00-.1-.03c-.11 0-.3.04-.3.37 0 .22.08.35.3.35l.1-.01c.05-.03.08-.05.08-.13zm.3.82h-.25c-.03 0-.03-.01-.03-.03 0 0 0-.02-.03-.02-.05 0-.12.07-.3.07-.33 0-.53-.23-.53-.6 0-.4.22-.61.56-.61.16 0 .24.06.26.06.01 0 .02-.01.02-.03v-.44c0-.04.02-.04.04-.04h.26c.02 0 .05 0 .05.04v1.56c0 .04-.03.04-.05.04M31.04 13.04c-.22 0-.33-.05-.35-.07-.02-.02-.03-.03-.03-.06v-.14c0-.02 0-.04.04-.04l.03.01c.08.05.19.07.3.07.07 0 .14-.01.14-.09 0-.06-.06-.09-.1-.11l-.15-.09c-.14-.08-.23-.15-.23-.32 0-.27.2-.37.44-.37.14 0 .27.03.32.06.02.02.02.03.02.06v.15c0 .02 0 .03-.03.03h-.04a.45.45 0 00-.24-.07c-.07 0-.15 0-.15.08 0 .06.06.09.1.11l.14.08c.14.08.25.16.25.34 0 .21-.16.37-.46.37M7.1 15h-.16c-.01 0-.03 0-.03.02v.87c0 .04-.02.05-.04.05h-.26c-.02 0-.04 0-.04-.05v-.87c0-.02-.01-.03-.02-.03h-.1c-.02 0-.04 0-.04-.04v-.14c0-.04.02-.05.04-.05h.1s.02 0 .02-.02v-.06c0-.11 0-.16.02-.2.07-.17.23-.2.32-.2.12 0 .24.04.24.1v.13c0 .03-.02.04-.03.04l-.1-.02c-.05 0-.08.01-.1.06v.15c0 .02 0 .02.02.02h.16c.02 0 .05 0 .05.05v.14c0 .04-.03.04-.05.04M8.2 14.62c-.08 0-.14-.04-.14-.14 0-.09.06-.13.15-.13.1 0 .14.04.14.14s-.05.13-.14.13zm-.4 0c-.1 0-.15-.04-.15-.14 0-.09.06-.13.15-.13.1 0 .14.04.14.14s-.05.13-.14.13zm.72 1.32h-.26c-.03 0-.04-.02-.04-.03 0-.01 0-.02-.02-.02a.24.24 0 00-.09.02.68.68 0 01-.23.04c-.13 0-.25-.03-.32-.1-.08-.1-.09-.2-.09-.38v-.66c0-.04.03-.05.04-.05h.27c.02 0 .04 0 .04.05v.64c0 .1 0 .15.04.19.03.04.09.06.16.06a.3.3 0 00.12-.02c.05-.02.07-.05.07-.11v-.76c0-.04.02-.05.04-.05h.27c.01 0 .04 0 .04.05v1.08c0 .04-.03.05-.04.05M9.76 15.05c-.03 0-.05-.02-.17-.02-.19 0-.2.1-.2.18v.68c0 .04-.03.05-.05.05h-.26c-.02 0-.05 0-.05-.05v-1.08c0-.04.03-.05.05-.05h.25c.03 0 .03.02.03.03v.02l.03.02c.07 0 .12-.08.3-.08.1 0 .1.03.1.07v.2c0 .01 0 .03-.03.03M11.7 14.71a.75.75 0 00-.33-.04h-.1s-.02 0-.02.02v.95c0 .02.02.03.03.03h.14c.2 0 .5-.06.5-.51 0-.22-.07-.38-.23-.45zm.26 1.12c-.12.07-.28.1-.5.1h-.53c-.02 0-.05 0-.05-.04v-1.45c0-.04.03-.04.05-.04h.56c.18 0 .33.02.44.08.24.1.38.37.38.68 0 .3-.13.55-.35.67M13.2 14.96c-.14 0-.22.09-.22.22 0 .02 0 .02.03.02h.39c.02 0 .03 0 .03-.03 0-.17-.13-.21-.23-.21zm.53.46h-.7c-.03 0-.04 0-.04.03 0 .2.13.28.34.28.15 0 .26-.05.3-.08h.04c.02 0 .03.01.03.03v.15c0 .02 0 .04-.02.05-.06.05-.23.08-.4.08-.33 0-.65-.13-.65-.6 0-.44.25-.62.58-.62.5 0 .56.34.56.58v.06c0 .03-.02.04-.04.04M15.2 15.94h-.25c-.03 0-.04-.02-.04-.03 0-.01 0-.02-.02-.02a.24.24 0 00-.08.02.68.68 0 01-.24.04c-.13 0-.25-.03-.32-.1-.08-.1-.08-.2-.08-.38v-.66c0-.04.02-.05.04-.05h.26c.02 0 .04 0 .04.05v.64c0 .1 0 .15.04.19.03.04.09.06.16.06a.3.3 0 00.12-.02c.05-.02.07-.05.07-.11v-.76c0-.04.03-.05.04-.05h.27c.02 0 .04 0 .04.05v1.08c0 .04-.02.05-.04.05M16.18 15.95c-.06 0-.22 0-.31-.07-.07-.06-.1-.14-.1-.31v-.55c0-.02-.02-.03-.03-.03h-.1c-.02 0-.04 0-.04-.04v-.14c0-.04.02-.05.04-.05h.1c.01 0 .02 0 .02-.02v-.23c0-.03.02-.04.04-.04h.27c.01 0 .04 0 .04.04v.23c0 .02 0 .02.02.02h.28c.02 0 .05 0 .05.05v.14c0 .04-.03.04-.05.04h-.28c-.01 0-.02.01-.02.03v.6c.02.04.06.08.15.08.1 0 .13-.04.16-.04.02 0 .04 0 .04.04v.17c0 .06-.17.08-.28.08M17.22 15.95c-.22 0-.33-.05-.35-.07-.03-.01-.03-.03-.03-.05v-.15c0-.01 0-.03.03-.03h.04c.08.05.18.08.3.08.07 0 .14-.02.14-.1 0-.06-.06-.08-.1-.1l-.16-.1c-.13-.07-.23-.14-.23-.32 0-.26.2-.37.45-.37.14 0 .27.04.32.07.02.02.02.03.02.06V15c0 .02 0 .04-.03.04l-.04-.01a.45.45 0 00-.24-.07c-.07 0-.15.01-.15.09 0 .06.05.08.1.1l.14.09c.13.07.24.16.24.34 0 .2-.15.36-.45.36M18.98 15.88c-.05.05-.23.07-.37.07-.53 0-.6-.38-.6-.59 0-.22.07-.62.63-.62.13 0 .3.04.35.07.02.02.02.03.02.06v.16c0 .02 0 .04-.03.04l-.04-.01a.45.45 0 00-.25-.07c-.26 0-.32.18-.32.37s.08.35.3.35c.12 0 .2-.03.27-.07l.04-.01c.02 0 .03.02.03.04v.16c0 .02 0 .04-.03.05M20.47 15.94h-.26c-.02 0-.04 0-.04-.05v-.64c0-.1-.01-.15-.04-.19-.04-.04-.09-.06-.16-.06-.04 0-.1 0-.13.02-.04.02-.06.05-.06.11v.76c0 .05-.03.05-.05.05h-.26c-.01 0-.04 0-.04-.05v-1.55c0-.04.03-.04.04-.04h.26c.02 0 .05 0 .05.04v.45c0 .02 0 .03.02.03s.13-.08.3-.08c.13 0 .25.04.33.12.07.08.08.18.08.37v.66c0 .04-.02.05-.04.05M21.28 15.94h-.26c-.02 0-.04 0-.04-.05v-1.55c0-.04.02-.04.04-.04h.26c.02 0 .05 0 .05.04v1.55c0 .04-.03.05-.05.05M22.44 15.37c0-.02-.01-.03-.02-.03l-.04.01-.13.05c-.08.03-.16.06-.16.18 0 .1.05.14.17.14.04 0 .1-.01.13-.03.02-.02.05-.04.05-.1zm.29.57h-.25c-.02 0-.03-.02-.03-.03 0-.01 0-.02-.02-.02-.05 0-.14.06-.31.06-.31 0-.39-.18-.39-.34 0-.22.12-.31.37-.39l.26-.08c.04 0 .08-.02.08-.06v-.01c0-.07-.06-.1-.22-.1-.2 0-.31.08-.34.09l-.04.01c-.02 0-.03-.02-.03-.04v-.15c0-.02 0-.04.03-.06a1 1 0 01.44-.08c.28 0 .37.1.4.12.06.06.1.14.1.3v.73c0 .04-.03.05-.05.05M24.28 15.94h-.26c-.02 0-.04 0-.04-.05v-.64c0-.1-.01-.15-.04-.19-.04-.04-.1-.06-.16-.06-.04 0-.1 0-.13.02-.04.02-.07.05-.07.11v.76c0 .04-.02.05-.04.05h-.26c-.02 0-.04 0-.04-.05v-1.08c0-.04.02-.05.04-.05h.26c.03 0 .03.02.03.03 0 .01 0 .02.03.02l.08-.02a.67.67 0 01.23-.05c.13 0 .25.04.32.12.08.08.1.18.1.37v.66c0 .04-.03.05-.05.05M25.55 15.11c0-.06-.03-.08-.08-.1a.27.27 0 00-.1-.02c-.1 0-.3.03-.3.37 0 .21.08.35.3.35.03 0 .07 0 .1-.02.05-.02.08-.04.08-.13zm.3.83h-.25c-.03 0-.03-.02-.03-.03 0-.01 0-.02-.03-.02-.05 0-.12.06-.3.06-.33 0-.53-.22-.53-.59 0-.4.23-.62.56-.62.16 0 .24.07.26.07l.02-.03v-.45c0-.03.02-.04.04-.04h.27c.01 0 .04 0 .04.04v1.56c0 .04-.03.05-.04.05"/><g clip-path="url(#a)" transform="matrix(.01117 0 0 -.01117 .26 15.96)"><path fill="url(#b)" d="M1042.82 538.18L196.3 803.23 0 544.95z"/></g><g clip-path="url(#c)" transform="matrix(.01117 0 0 -.01117 .26 15.96)"><path fill="url(#d)" d="M1068.83 562.35l-533.85 708.1-308.6-93.77z"/></g><path fill="#231f20" d="M12.35 9.57L9.1.2 5.5.15z"/><g clip-path="url(#e)" transform="matrix(.01117 0 0 -.01117 .26 15.96)"><path fill="url(#f)" d="M1055.12 550.6l-724.6 511.31L65.28 878.36z"/></g></svg>