<svg xmlns="http://www.w3.org/2000/svg" xmlns:xlink="http://www.w3.org/1999/xlink" viewBox="0 0 32 21"><defs/><path d="M6.39 15.98v.56h.7v.24h-.7v.64h.78v.23H6.12v-1.9h1.05v.24zm1.66.78l.3-.5h.29l-.45.67.49.72h-.31l-.34-.54-.34.54h-.3l.5-.73-.45-.67h.3zm.9-.5h.26v1.4h-.26zm.27-.32h-.28v-.28h.28zm.34 1.44a.67.67 0 00.32.1c.12 0 .25-.05.25-.2 0-.25-.58-.23-.58-.63 0-.29.2-.42.48-.42.12 0 .21.01.31.05l-.02.23a.74.74 0 00-.26-.08c-.14 0-.25.06-.25.17 0 .29.6.2.6.65 0 .3-.23.44-.48.44a.78.78 0 01-.37-.08zm1.89-.92h-.37v.76c0 .17.1.26.22.26.07 0 .13-.02.16-.05v.22a.78.78 0 01-.21.04c-.25 0-.42-.13-.42-.4v-.83h-.31v-.2h.3v-.33l.26-.08v.4h.37zm1.2.36c0-.21-.12-.39-.34-.39-.25 0-.35.21-.37.39zm.16.77c-.1.05-.2.1-.43.1-.49 0-.72-.3-.72-.76 0-.42.26-.71.65-.71.46 0 .61.34.61.8h-.98c0 .27.21.46.45.46.17 0 .36-.09.42-.14zm.44-1.34h.26v.23c.07-.17.25-.25.45-.25.35 0 .5.22.5.59v.84h-.24v-.73c0-.32-.08-.48-.3-.5-.28 0-.41.24-.41.57v.65h-.26zm2.63.23l-.78.97h.82v.2H14.8v-.22l.79-.97h-.75v-.2h1.04zm1.32.49c0-.29-.13-.54-.4-.54-.25 0-.38.29-.38.52 0 .26.15.5.38.5.24 0 .4-.22.4-.48zm.25.62c0 .43-.21.68-.7.68a1.37 1.38 0 01-.5-.1l.03-.24c.2.09.31.13.5.13.26 0 .42-.19.42-.48v-.15a.57.57 0 01-.46.21c-.4 0-.6-.32-.6-.68 0-.36.21-.75.62-.75.25 0 .38.1.45.25h.01v-.2h.23zm.44-1.34h.23v.22a.42.42 0 01.36-.25c.09 0 .12 0 .17.02v.23a.37.37 0 00-.14-.02c-.23 0-.37.22-.37.57v.63h-.25zm1.74-.49h.25v.28h-.25zm-.44 0h.26v.28h-.26zm.95 1.9h-.24v-.23a.5.5 0 01-.45.26c-.36 0-.51-.22-.51-.6v-.84h.25v.73c0 .33.06.49.28.5.3 0 .42-.24.42-.58v-.65h.25zm.43-1.4h.25v.22c.08-.17.27-.25.45-.25.36 0 .52.22.52.59v.84h-.25v-.73c0-.32-.08-.48-.3-.5-.28 0-.41.24-.41.57v.65h-.25zm2.2 1.22c.29 0 .4-.3.4-.52 0-.26-.13-.53-.4-.53s-.38.26-.38.52c0 .22.11.53.39.53zm.42-.02a.55.56 0 01-.47.23c-.42 0-.59-.37-.59-.76 0-.37.2-.71.59-.71.24 0 .37.1.45.23v-.85h.26v2.05h-.24v-.2zm1.89.2h-.25v-.23a.5.5 0 01-.46.26c-.35 0-.5-.22-.5-.6v-.84h.24v.73c0 .33.07.49.3.5.28 0 .42-.24.42-.58v-.65h.25zm.42-1.4h.25v.22c.08-.17.26-.25.46-.25.35 0 .5.22.5.59v.84h-.25v-.73c0-.32-.07-.48-.29-.5-.28 0-.42.24-.42.57v.65h-.25zm2.6.71c0-.29-.13-.54-.4-.54-.25 0-.37.29-.37.52 0 .26.14.5.37.5.24 0 .4-.22.4-.48zm.26.62c0 .43-.21.68-.7.68a1.37 1.38 0 01-.5-.1l.02-.24c.2.09.31.13.5.13.27 0 .43-.19.43-.48v-.15a.57.57 0 01-.46.21c-.4 0-.6-.32-.6-.68 0-.36.2-.75.62-.75.24 0 .38.1.45.25v-.2h.24v1.34zm1.32-.77c0-.21-.13-.39-.34-.39-.26 0-.36.21-.37.39zm.17.77c-.1.05-.21.1-.44.1-.5 0-.71-.3-.71-.76 0-.42.25-.71.64-.71.46 0 .6.34.6.8h-.97c0 .27.2.46.45.46.17 0 .36-.09.42-.14v.25zm.43-1.34h.25v.23c.09-.17.26-.25.45-.25.35 0 .51.22.51.59v.84h-.25v-.73c0-.32-.06-.48-.29-.5-.28 0-.42.24-.42.57v.65h-.25zM6.9 19.93h-.17c-.14 0-.47.02-.47.26 0 .15.14.23.25.23.25 0 .39-.16.39-.37zm-.76-.63a.86.87 0 01.45-.14c.4 0 .56.2.56.58v.58l.01.28h-.24v-.19a.5.5 0 01-.43.22c-.3 0-.5-.13-.5-.44 0-.35.38-.46.64-.46h.27c0-.24-.09-.36-.34-.36a.64.64 0 00-.4.15zm2.65 1.3h-.25v-.22a.52.52 0 01-.45.25c-.36 0-.52-.23-.52-.6v-.84h.25v.73c0 .33.08.48.3.5.29 0 .42-.24.42-.57v-.65h.25zm.32-.28a.67.67 0 00.32.1c.12 0 .25-.05.25-.2 0-.26-.58-.23-.58-.63 0-.28.2-.43.48-.43.12 0 .21.03.31.05l-.02.23a.74.74 0 00-.26-.07c-.13 0-.25.05-.25.17 0 .29.6.2.6.65 0 .3-.24.44-.48.44a.78.78 0 01-.38-.08zm2.46.1c.29 0 .4-.29.4-.52 0-.26-.13-.53-.4-.53s-.38.26-.38.52c0 .22.1.53.38.53zm.42-.03h-.02a.55.56 0 01-.46.24c-.41 0-.58-.38-.58-.76s.18-.7.58-.7c.24 0 .38.09.46.22v-.86h.26v2.06h-.25zm1.55-.63c0-.2-.12-.39-.34-.39-.25 0-.35.2-.36.4zm.17.78c-.1.03-.21.08-.44.08-.48 0-.71-.3-.71-.76 0-.4.26-.7.64-.7.46 0 .62.34.62.8h-.98c0 .27.2.46.45.46.17 0 .36-.08.42-.14zm.44-1.34h.23v.22h.01a.4.4 0 01.36-.26c.08 0 .11 0 .17.02v.24a.37.37 0 00-.14-.03c-.23 0-.38.22-.38.57v.64h-.25zm2.15 1.4l-.57-1.92h.3l.45 1.64.4-1.64h.4l.4 1.64.44-1.64h.3l-.59 1.92h-.34l-.41-1.68-.42 1.68zm2.37-1.4h.25v1.4h-.25zm.27-.32h-.29v-.3h.29zm.34 1.44a.67.67 0 00.32.1c.1 0 .25-.05.25-.2 0-.26-.59-.23-.59-.63 0-.28.21-.43.48-.43.12 0 .22.03.32.05l-.03.23a.74.74 0 00-.26-.07c-.13 0-.25.05-.25.17 0 .29.6.2.6.65 0 .3-.23.44-.48.44a.78.78 0 01-.38-.08zm1.04 0a.67.67 0 00.32.1c.11 0 .25-.05.25-.2 0-.26-.58-.23-.58-.63 0-.28.2-.43.47-.43.12 0 .22.03.32.05l-.02.23a.74.74 0 00-.26-.07c-.14 0-.25.05-.25.17 0 .29.6.2.6.65 0 .3-.23.44-.49.44a.78.78 0 01-.37-.08zm2.04-.56c0-.2-.12-.39-.34-.39-.25 0-.35.2-.37.4zm.16.78c-.1.03-.2.08-.43.08-.49 0-.71-.3-.71-.76 0-.4.25-.7.64-.7.46 0 .6.34.6.8h-.97c0 .27.21.46.45.46.17 0 .37-.08.42-.14v.26zm.45-1.34h.25v.22c.07-.16.25-.26.44-.26.36 0 .52.23.52.6v.84h-.25v-.73c0-.33-.08-.49-.3-.5-.28 0-.41.24-.41.59v.64h-.25zm1.54 1.12a.67.67 0 00.32.1c.11 0 .25-.05.25-.2 0-.26-.59-.23-.59-.63 0-.28.21-.43.48-.43.12 0 .22.03.32.05l-.03.23a.74.74 0 00-.26-.07c-.13 0-.25.05-.25.17 0 .29.6.2.6.65 0 .3-.23.44-.48.44a.78.78 0 01-.38-.08zm2.01-.89a.73.73 0 00-.26-.06c-.29 0-.45.26-.45.53 0 .25.14.52.46.52.09 0 .2-.03.27-.08l.02.23a.75.76 0 01-.32.06c-.42 0-.7-.34-.7-.73 0-.42.28-.74.7-.74.1 0 .23.03.3.05zm.33-.9h.25v.87a.5.5 0 01.45-.24c.35 0 .5.23.5.6v.84h-.25v-.73c0-.33-.06-.49-.28-.5-.28 0-.42.24-.42.59v.64h-.25zm2.46 1.4h-.17c-.13 0-.47.02-.47.26 0 .15.14.23.26.23.25 0 .38-.16.38-.37zm-.75-.63a.86.87 0 01.45-.14c.4 0 .55.2.55.58v.86h-.22v-.19a.5.5 0 01-.43.22c-.3 0-.5-.13-.5-.44 0-.35.36-.46.63-.46h.27c0-.24-.08-.36-.33-.36a.64.64 0 00-.4.15zm1.6.1h-.33v-.2h.32v-.13c0-.34.09-.56.47-.56l.16.01v.21a.4.4 0 00-.13-.01c-.22 0-.25.13-.25.32v.16h.37v.2h-.36v1.19h-.26zm1.6 0h-.36v.77c0 .17.1.25.21.25.08 0 .13-.03.17-.05v.22a.79.8 0 01-.21.04c-.26 0-.42-.13-.42-.4v-.82h-.3v-.21h.3v-.33l.25-.09v.42h.36zM5.65 7.8a4.27 4.3 0 00.05-.58c0-.88-.54-1.52-1.56-1.52-1.1 0-1.95 1-2.25 2.1zm.18 4.33c-.7.17-1.44.3-2.18.3-1.78 0-3.38-.73-3.38-3.37 0-2.07 1.42-4.47 4.02-4.47 1.77 0 2.76 1.09 2.76 2.87a8.03 8.1 0 01-.13 1.36H1.75a2.54 2.56 0 00-.04.47c0 1.58.95 2.02 2.26 2.02a5.5 5.5 0 002.07-.44zm11.22.09l1.6-7.52h1.06l-1.6 7.5z"/><path fill="none" stroke="#000" d="M1550.8 95.84l7.44-34.61h5l-7.43 34.6z" transform="matrix(.21268 0 0 .21717 -312.82 -8.6)"/><path d="M24.75 5.87a2.5 2.51 0 00-1.34-.36c-.68 0-1.45.28-1.45 1.17 0 1.27 2.51 1.27 2.51 3.24 0 1.13-.77 2.41-2.54 2.41a5.21 5.25 0 01-2.06-.42l.34-1a3.07 3.1 0 001.55.48c1.12 0 1.6-.71 1.6-1.34 0-1.52-2.52-1.26-2.52-3.35 0-1.37 1.22-2.14 2.44-2.14.6 0 1.21.11 1.77.35z"/><path fill="none" stroke="#000" d="M1587 66.68c-1.64-1-3.67-1.69-6.3-1.69-3.27 0-6.84 1.3-6.84 5.4 0 5.81 11.8 5.86 11.8 14.93 0 5.21-3.62 11.11-11.95 11.11-4.02 0-6.9-.9-9.67-1.98l1.58-4.56a14.56 14.56 0 007.3 2.18c5.25 0 7.48-3.27 7.48-6.15 0-7.04-11.8-5.8-11.8-15.42 0-6.3 5.75-9.87 11.45-9.87 2.88 0 5.7.55 8.33 1.64z" transform="matrix(.21268 0 0 .21717 -312.82 -8.6)"/><path d="M31.89 4.7l-.2.94h-2.3l-1.38 6.57h-1.06l1.38-6.58h-2.28l.2-.94z"/><g transform="matrix(.21268 0 0 .21717 -312.82 -8.6)"><defs><path id="a" d="M1471.87 40.25h148.9v94.38h-148.9z"/></defs><clipPath id="b"><use width="100%" height="100%" overflow="visible" xlink:href="#a"/></clipPath><path fill="none" stroke="#000" d="M1620.52 61.23l-.95 4.36h-10.76l-6.5 30.25h-5l6.5-30.25h-10.77l.95-4.36z" clip-path="url(#b)"/></g><path fill="#e30613" d="M11.5 9.84l-3.72 4.22-1.71-1.13 4.47-4.74-2.41-4.95h2.4l1.62 3.61 3.66-4.17 1.67 1.1-4.32 4.68 2.51 5.03h-2.5z"/><path fill="#c6c6c6" d="M14.26 1.53a1.38 1.4 0 01-1.37 1.4 1.38 1.4 0 01-1.38-1.4c0-.77.62-1.4 1.38-1.4.75 0 1.37.63 1.37 1.4z"/></svg>