<svg xmlns="http://www.w3.org/2000/svg" viewBox="0 0 32 12"><defs/><path fill="#29794f" d="M31.82 8.6c.2.23.17.56-.06.74a.55.55 0 01-.75-.05.51.51 0 01.05-.73.55.55 0 01.76.05"/><path fill="#19b4cf" d="M17.85 11.09c.2.22.17.55-.05.73a.55.55 0 01-.76-.05.51.51 0 01.06-.73.55.55 0 01.75.05"/><path fill="#4dbd38" d="M1 5.56c.2.22.17.54-.05.73a.55.55 0 01-.76-.05.51.51 0 01.05-.74.55.55 0 01.76.06"/><path fill="#a0148e" d="M21.76.23c.2.21.17.54-.06.73a.55.55 0 01-.75-.05.51.51 0 01.05-.74.55.55 0 01.76.06"/><path fill="#f79210" d="M12.7 2.34c.2.21.17.54-.06.73a.55.55 0 01-.75-.05.51.51 0 01.05-.74.55.55 0 01.76.06"/><path fill="#231f20" d="M12.1 9.93h.13V8.91h-.14v1.02M12.94 9.2a1.27 1.27 0 00-.22-.03c-.18 0-.25.1-.25.24v.3c0 .16.07.24.22.24.1 0 .2-.04.25-.09l.02.07h.1V8.86l-.12.02zm0 .54a.36.36 0 01-.22.1c-.1 0-.12-.05-.12-.12v-.3c0-.1.04-.14.12-.14l.22.03v.43M13.58 9.17c-.23 0-.3.12-.3.28v.22c0 .17.08.28.3.28.1 0 .2-.02.28-.05l-.02-.1c-.08.02-.17.04-.24.04-.15 0-.19-.05-.19-.17v-.06h.46v-.16c0-.15-.06-.28-.29-.28m.16.33h-.33v-.06c0-.1.05-.16.17-.16.13 0 .16.05.16.16v.06M14.34 9.17c-.23 0-.3.12-.3.28v.22c0 .17.08.28.3.28.1 0 .2-.02.27-.05l-.01-.1c-.09.02-.17.04-.25.04-.15 0-.18-.05-.18-.17v-.06h.46v-.16c0-.15-.06-.28-.29-.28m.16.33h-.33v-.06c0-.1.05-.16.17-.16.12 0 .16.05.16.16v.06M14.73 9.93h.11v-.18h-.1v.18M15.24 9.03h.31v.9h.14v-.9H16V8.9h-.76v.12M16.15 9.29l-.01-.1h-.11v.74h.13v-.51c.06-.05.14-.1.22-.13l-.02-.12a.99.99 0 00-.21.12M16.76 9.17c-.08 0-.18.01-.25.03l.01.1.23-.02c.12 0 .17.03.17.12v.12h-.2c-.16 0-.24.06-.24.21 0 .13.06.22.2.22.1 0 .18-.03.25-.07v.05h.12v-.52c0-.16-.07-.24-.3-.24m.17.6a.4.4 0 01-.2.07c-.1 0-.11-.03-.11-.11s.03-.1.11-.1h.2v.14M17.71 9.17c-.09 0-.22.04-.3.08l-.02-.07h-.1v.75h.13v-.56c.08-.04.2-.08.25-.08.05 0 .08.02.08.07v.57h.13v-.57c0-.12-.04-.2-.17-.2M18.36 9.5c-.13-.03-.13-.04-.13-.13 0-.06.02-.1.13-.1l.21.03.01-.1a.9.9 0 00-.21-.03c-.2 0-.27.06-.27.2 0 .15.02.2.21.24.15.04.16.04.16.12 0 .08-.02.1-.14.1a.9.9 0 01-.22-.02l-.02.1a.8.8 0 00.25.04c.22 0 .26-.07.26-.22s-.02-.17-.24-.23M18.87 9.05v.13h-.13v.11h.13v.64h.14V9.3h.2l.01-.1h-.21v-.13c0-.08.02-.1.1-.1h.13v-.1a.55.55 0 00-.15-.01c-.14 0-.22.06-.22.2M19.62 9.17c-.23 0-.3.12-.3.28v.22c0 .17.07.28.3.28.1 0 .2-.02.27-.05l-.01-.1c-.09.02-.17.04-.25.04-.15 0-.18-.05-.18-.17v-.06h.46v-.16c0-.15-.06-.28-.3-.28m.17.33h-.33v-.06c0-.1.04-.16.17-.16.12 0 .16.05.16.16v.06M20.24 9.29l-.01-.1h-.11v.74h.13v-.51c.06-.05.14-.1.22-.13l-.02-.12a.99.99 0 00-.21.12M20.48 9.93h.14v-.18h-.14v.18M21.18 9.93h.14V8.91h-.14v1.02M22.01 9.17c-.09 0-.22.04-.3.08l-.02-.07h-.1v.75h.13v-.56c.08-.04.2-.08.25-.08.05 0 .08.02.08.07v.57h.13v-.57c0-.12-.04-.2-.17-.2M22.85 9.17c-.09 0-.22.04-.3.08l-.02-.07h-.1v.75h.13v-.56c.08-.04.2-.08.26-.08.04 0 .07.02.07.07v.57h.13v-.57c0-.12-.04-.2-.17-.2M23.54 9.17c-.23 0-.31.12-.31.28v.22c0 .15.08.28.3.28.23 0 .32-.13.32-.28v-.22c0-.16-.09-.28-.31-.28m.18.5c0 .1-.06.16-.18.16s-.18-.05-.18-.16v-.23c0-.1.06-.16.18-.16s.18.06.18.16v.23M24.28 9.83l-.2-.65h-.14l.26.75h.17l.26-.75h-.13l-.22.65M25 9.17c-.08 0-.17.01-.25.03l.02.1.23-.02c.12 0 .16.03.16.12v.12h-.2c-.16 0-.24.06-.24.21 0 .13.06.22.2.22.1 0 .19-.03.26-.07v.05h.12v-.52c0-.16-.08-.24-.3-.24m.16.6a.39.39 0 01-.2.07c-.09 0-.1-.03-.1-.11s.03-.1.1-.1h.2v.14M25.79 9.84c-.07 0-.08-.03-.08-.09V9.3h.2l.02-.1h-.22v-.2l-.13.01v.18h-.14v.11h.14v.49c0 .12.06.17.19.17a.5.5 0 00.16-.03l-.02-.1a.5.5 0 01-.12.02M26.11 9.06h.13v-.18h-.13v.18M26.11 9.93h.13v-.75h-.13v.75M26.77 9.17c-.22 0-.31.12-.31.28v.22c0 .15.09.28.3.28.23 0 .32-.13.32-.28v-.22c0-.16-.09-.28-.31-.28m.18.5c0 .1-.06.16-.18.16s-.18-.05-.18-.16v-.23c0-.1.06-.16.18-.16s.18.06.18.16v.23M27.72 9.17c-.09 0-.22.04-.3.08l-.02-.07h-.1v.75h.13v-.56c.08-.04.2-.08.25-.08.05 0 .08.02.08.07v.57h.13v-.57c0-.12-.04-.2-.17-.2M28 9.93h.13v-.18h-.14v.18M5.93 4.76v.56H5.4v.28h.52V8h.33V5.6h.81l.04-.28h-.85V4.8c0-.3.1-.4.4-.4.16 0 .32 0 .5.04l.05-.25c-.17-.05-.4-.07-.57-.07-.43 0-.71.2-.71.64M9.17 7.46c-.35.17-.83.3-1.06.3-.2 0-.3-.07-.3-.26V5.32h-.33v2.14c0 .37.15.6.58.6.34 0 .83-.16 1.13-.3l.02.25h.29V5.32h-.33v2.14M11.06 7.79c-.29 0-.32-.1-.32-.34V5.6h.8l.04-.28h-.84v-.67l-.33.04v.63h-.53v.28h.53v1.89c0 .42.19.57.62.57.2 0 .42-.04.58-.1l-.06-.25c-.17.05-.34.08-.5.08M13.8 7.77l.02.24h.28V5.32h-.32v2.14c-.35.17-.84.3-1.06.3-.2 0-.3-.07-.3-.26V5.32h-.33v2.14c0 .37.15.6.58.6.34 0 .83-.16 1.12-.3M15.8 5.27c-.27.1-.56.27-.86.46l-.01-.4h-.3V8h.33V6.08c.27-.17.59-.38.87-.5l-.04-.31M18.07 7.66c-.27.07-.6.12-.87.12-.55 0-.72-.2-.72-.68v-.34h1.7v-.52c0-.55-.22-.97-1-.97s-1.03.42-1.03.97v.85c0 .58.25.97 1.02.97.34 0 .7-.06.96-.14zm-1.6-1.43c0-.45.2-.69.7-.69.52 0 .69.24.69.7v.24h-1.38v-.25M20.04 5.88c-.63-.15-.64-.16-.64-.58 0-.32.08-.42.54-.42.32 0 .67.04.96.1l.17-.58a5.67 5.67 0 00-1.14-.12c-.91 0-1.2.33-1.2 1 0 .78.11.95.98 1.15.65.14.66.17.66.58 0 .35-.08.46-.57.46-.36 0-.68-.07-1.02-.17l-.12.54c.24.12.72.22 1.13.22 1.06 0 1.3-.35 1.3-1.05 0-.73-.09-.9-1.05-1.13M22.16 7.25h1.35l.24.76h.72l-1.15-3.67h-.96L21.21 8h.72zm.68-2.34l.5 1.74h-1zM27.07 8h.78l-1.2-1.84 1.15-1.82h-.77l-.8 1.28-.79-1.28h-.77l1.15 1.82-1.2 1.85h.78l.83-1.3.84 1.3"/></svg>