<?xml version="1.0" encoding="UTF-8" standalone="no"?>
<svg
   viewBox="0 0 29 15"
   version="1.1"
   id="svg12"
   sodipodi:docname="german-ministry-science.svg"
   width="29"
   height="15"
   inkscape:version="1.2.2 (1:1.2.2+202212051551+b0a8486541)"
   xmlns:inkscape="http://www.inkscape.org/namespaces/inkscape"
   xmlns:sodipodi="http://sodipodi.sourceforge.net/DTD/sodipodi-0.dtd"
   xmlns="http://www.w3.org/2000/svg"
   xmlns:svg="http://www.w3.org/2000/svg">
  <sodipodi:namedview
     id="namedview14"
     pagecolor="#ffffff"
     bordercolor="#000000"
     borderopacity="0.25"
     inkscape:showpageshadow="2"
     inkscape:pageopacity="0.0"
     inkscape:pagecheckerboard="0"
     inkscape:deskcolor="#d1d1d1"
     showgrid="false"
     inkscape:zoom="32.09375"
     inkscape:cx="9.8149951"
     inkscape:cy="15.984421"
     inkscape:window-width="2490"
     inkscape:window-height="1403"
     inkscape:window-x="70"
     inkscape:window-y="0"
     inkscape:window-maximized="1"
     inkscape:current-layer="svg12" />
  <defs
     id="defs2" />
  <path
     fill="#f8d200"
     d="m 7.5041092,10.026996 h 0.3690852 v 4.839117 H 7.0325003 v -4.839117 z"
     id="path6"
     style="stroke-width:1.02524" />
  <path
     fill="#e30613"
     d="M 7.5041092,5.1366169 H 7.8731944 V 10.026996 H 7.0325003 V 5.1263645 Z"
     id="path8"
     style="stroke-width:1.02524" />
  <path
     d="M 3.3826576,2.1019162 V 1.8148499 c 0.4818613,0 0.8919559,-0.3383281 0.8919559,-0.7381704 0,-0.2152997 -0.1332807,-0.36908521 -0.2050473,-0.46135651 h 0.061514 A 0.79968463,0.79968463 0 0 1 4.3976419,1.1586984 c 0,0.4921137 -0.4818612,0.9227131 -1.0149843,0.9227131 z M 2.9110487,0.43078038 A 0.32807575,0.33832811 0 0 0 2.8495345,0.28724724 c 0,-0.0615142 0.020505,-0.10252367 0.1025237,-0.0615142 -0.04101,0.0410095 0,0.1230284 0,0.1230284 0,0 0.071767,-0.0410095 0.051262,-0.10252367 0.1332808,0.0410095 0.041009,0.20504735 -0.1025236,0.18454261 z M 2.808525,0.67683719 A 0.51261835,0.51261835 0 0 0 2.695749,0.47178985 0.24605681,0.24605681 0 0 0 2.4907017,0.36926618 0.49211362,0.49211362 0 0 0 2.3369162,0.40002328 0.44085178,0.44085178 0 0 1 2.2856543,0.26674251 c 0,-0.0410095 0.061514,-0.0717666 0.1742903,-0.0717666 0.2358044,0 0.3895899,0.10252367 0.3895899,0.30757101 0,0.0615142 -0.030757,0.13328077 -0.051262,0.17429024 z M 3.4236671,3.8960805 a 0.13328077,0.13328077 0 0 1 0.071767,0.010252 c 0.061514,0.2050474 0.3280758,0.5638802 0.3485805,0.5741326 a 2.6041012,2.624606 0 0 1 0.38959,-0.020505 h 0.041009 l 0.020505,0.051262 A 0.26656154,0.26656154 0 0 1 4.2643612,4.6445033 C 4.2130993,4.5932414 4.1310804,4.5624843 3.9977996,4.5624843 L 3.895276,4.5829891 H 3.864519 l 0.082019,0.071766 c 0.1025237,0.1230284 0.2050473,0.2358045 0.2050473,0.307571 0,0.030757 -0.030757,0.082019 -0.071766,0.1025237 0,-0.1230284 -0.1332808,-0.2870663 -0.2563092,-0.3793376 v 0.1640379 c 0,0.2255521 -0.041009,0.2665615 -0.112776,0.2665615 h -0.04101 a 0.46135652,0.46135652 0 0 0 0.061514,-0.266561 V 4.5932414 A 1.2507888,1.2610412 0 0 0 3.5774526,4.5624843 c -0.1230284,0 -0.2050474,0.020505 -0.2563092,0.071767 -0.041009,-0.030757 -0.082019,-0.082019 -0.082019,-0.1230284 0,-0.041009 0.041009,-0.051262 0.082019,-0.051262 h 0.051262 c 0.051262,0.010252 0.1332808,0.020505 0.276814,0.020505 A 1.8761832,1.8864355 0 0 0 3.3416481,3.9883518 c 0.020505,-0.051262 0.030757,-0.092271 0.082019,-0.092271 z M 1.9678309,4.4804654 h 0.3383282 c 0.041009,0 0.071767,0 0.071767,0.030757 0,0.04101 -0.041009,0.1025237 -0.082019,0.1332808 C 2.2446449,4.5829891 2.1626259,4.5624843 2.0601023,4.5624843 L 1.885812,4.5829891 v 0.2665615 c 0,0.1332808 0.020505,0.2050473 0.061514,0.2665615 H 1.906317 c -0.071767,0 -0.1025236,-0.041009 -0.1025236,-0.2665615 V 4.6752604 H 1.7935407 A 0.66640386,0.66640386 0 0 0 1.5372315,5.0751027 c -0.041009,-0.030757 -0.082019,-0.082019 -0.082019,-0.1332808 0,-0.051262 0.1025237,-0.1640379 0.2255521,-0.2665615 l 0.071767,-0.082019 -0.020505,-0.010252 -0.112776,-0.020505 c -0.1332808,0 -0.2152997,0.030757 -0.2665616,0.082019 A 0.26656154,0.26656154 0 0 1 1.3219318,4.5112225 l 0.020505,-0.041009 0.051262,-0.010252 c 0.1332808,0 0.307571,0.020505 0.3690852,0.04101 h 0.010252 c 0,-0.030757 0.2870663,-0.4100947 0.3588328,-0.5946373 a 0.13328077,0.13328077 0 0 1 0.061514,0 c 0.051262,0 0.061514,0.030757 0.071767,0.082019 A 1.9171926,1.927445 0 0 0 1.9575786,4.4804654 Z M 1.2091558,1.1689508 c 0,-0.26656153 0.194795,-0.49211361 0.2563092,-0.56388018 l 0.061514,0.0102524 C 1.4552126,0.71784666 1.3219318,0.8613798 1.3219318,1.0766795 c 0,0.3998423 0.4305994,0.7484228 0.9022083,0.7484228 a 1.1072556,1.1072556 0 0 0 0,0.2665616 c -0.5228707,0 -1.0252367,-0.4408518 -1.0252367,-0.9329655 z M 4.8487461,2.0096449 C 5.1050553,2.4197396 5.2895979,2.4197396 5.5869165,2.4197396 A 2.0914829,2.1017353 0 0 1 5.1050553,1.845607 L 4.6642035,1.1279413 A 1.0662462,1.0662462 0 0 0 4.3361277,0.53330405 0.57413256,0.57413256 0 0 0 4.4694085,0.47178985 c -0.2973186,0 -0.5741325,-0.14353314 -0.7381704,-0.14353314 -0.1025237,0 -0.1742903,0.0512618 -0.1742903,0.13328077 0,0.0922713 0.1025237,0.18454261 0.2665616,0.18454261 h 0.1537855 c 0.092271,0.13328077 0.1640379,0.23580444 0.1640379,0.41009471 0,0.307571 -0.3690852,0.5638802 -0.7586752,0.5638802 H 3.3313958 C 3.2903863,1.538036 3.1776103,1.4150076 3.1776103,1.2612221 c 0,-0.26656153 0.1742902,-0.47160887 0.1742902,-0.71766568 0,-0.15378551 -0.082019,-0.24605681 -0.1025237,-0.28706628 a 0.43059942,0.43059942 0 0 0 0.1025237,-0.13328077 0.26656154,0.26656154 0 0 1 -0.1025237,0 c -0.1845426,0 -0.3383281,-0.04100947 -0.4716089,-0.04100947 -0.1025236,0 -0.1025236,0.0307571 -0.1025236,0.05126184 V 0.1744712 A 0.7176657,0.7176657 0 0 0 2.4394398,0.13346174 c -0.1742902,0 -0.2358044,0.0717666 -0.2358044,0.13328077 a 0.53312309,0.53312309 0 0 0 0.092271,0.23580444 0.53312309,0.53312309 0 0 1 0.1845426,-0.0615142 c 0.1025237,0 0.1742902,0.10252367 0.2050473,0.20504734 H 2.5624682 c -0.1742902,0 -0.2768139,-0.0512618 -0.307571,-0.0512618 0,0.0205047 0.04101,0.0922713 0.1332808,0.13328078 0.1332808,0.0410095 0.307571,0.0512618 0.3485805,0.0615142 0,0 -0.041009,0.0717666 -0.071767,0.0717666 H 2.6444872 A 1.5173503,1.5276027 0 0 1 2.3061591,0.75885613 c 0,0.0717666 0.1640378,0.22555207 0.3178233,0.27681387 C 2.4907017,1.2099603 2.3369162,1.3637458 2.2651496,1.6405597 h -0.061514 c -0.3690852,0 -0.7484228,-0.2563092 -0.7484228,-0.5638802 0,-0.17429023 0.071767,-0.29731864 0.1640379,-0.43059941 a 0.92271304,0.93296541 0 0 0 0.1332807,0.0102524 c 0.1845426,0 0.2665616,-0.0922713 0.276814,-0.17429024 0,-0.0922713 -0.061514,-0.14353314 -0.1742903,-0.14353314 -0.1435331,0 -0.4408518,0.14353314 -0.7279181,0.14353314 A 0.58438492,0.58438492 0 0 0 1.2604176,0.55380879 1.0662462,1.0662462 0 0 0 0.92208948,1.1381937 L 0.4812377,1.8558594 A 2.0812305,2.0914829 0 0 1 0.01988118,2.4094872 c 0.27681391,0 0.48186125,0 0.7176657,-0.3895899 L 0.96309895,1.6610644 A 0.99447961,1.004732 0 0 0 1.0348655,1.7943452 L 0.58376135,2.5325156 A 2.0607258,2.0709782 0 0 1 0.1019001,3.0758911 c 0.28706627,0 0.48186125,0 0.72791806,-0.3793376 L 1.2194081,2.0609067 a 1.5583598,1.5686122 0 0 0 0.092271,0.1025237 L 0.74779922,3.0553864 A 2.0607258,2.0709782 0 0 1 0.2864427,3.5885094 c 0.29731865,0 0.48186126,0.010252 0.7176657,-0.3690852 L 1.5372315,2.3274683 a 2.009464,2.0197163 0 0 0 0.1230284,0.071767 L 0.99385603,3.465481 A 2.0607258,2.0709782 0 0 1 0.52224715,4.0191089 c 0.29731864,0 0.48186125,0 0.71766575,-0.38959 L 1.9268215,2.5325156 a 2.4503157,2.4605681 0 0 0 0.1332807,0.041009 L 1.2809223,3.8140615 A 2.0914829,2.1017353 0 0 1 0.81956579,4.3471846 c 0.27681391,0 0.48186131,0.020505 0.71766571,-0.3690852 L 2.3574209,2.6452917 h 0.020505 a 0.61514203,0.61514203 0 0 1 0.041009,0.225552 c 0,0.3998424 -0.2665616,0.7689276 -0.6048897,1.0662462 H 2.0395975 C 1.9780833,4.1113802 1.8140454,4.3471846 1.7320265,4.4497083 a 2.3067826,2.317035 0 0 0 -0.3588329,-0.04101 c -0.1025236,0 -0.112776,0.061514 -0.112776,0.1332808 0,0.092271 0.041009,0.1537855 0.092271,0.2050473 0.020505,-0.051262 0.061514,-0.112776 0.2665615,-0.112776 -0.051262,0.061514 -0.225552,0.2050473 -0.225552,0.3280757 0,0.071767 0.071767,0.194795 0.2050473,0.194795 V 5.085355 c 0,-0.092271 0.071767,-0.2050473 0.1230284,-0.2768139 v 0.051262 c 0,0.2050473 0.030757,0.3178233 0.1742903,0.3178233 a 0.20504734,0.20504734 0 0 0 0.133281,-0.051262 C 1.9268215,5.0443456 1.9268215,4.9828314 1.9268215,4.859803 V 4.6239985 h 0.112776 c 0,0 0.2050473,-0.020505 0.2460568,0.092271 0.051262,-0.041009 0.1332808,-0.1230284 0.1332808,-0.2050473 0,-0.051262 -0.030757,-0.1025237 -0.1332808,-0.1025237 l -0.2665615,0.020505 a 2.5630918,2.5835965 0 0 1 0.2665615,-0.3690852 0.29731865,0.29731865 0 0 0 0.092271,0.1435332 c 0.010252,-0.082019 0.061514,-0.3588329 0.2050474,-0.5126184 0,0.1025237 0.020505,0.2152997 0.020505,0.4511042 0,0.5536278 -0.1332808,0.9739748 -0.4100947,1.0559938 0.030757,0.061514 0.112776,0.1332808 0.2050473,0.1332808 0.082019,0 0.1537856,-0.1332808 0.2050474,-0.2460569 0.020505,0.082019 0.1025237,0.2870663 0.2050473,0.2870663 0.071767,0 0.1537855,-0.2050473 0.1742903,-0.2870663 0.061514,0.1025237 0.1230284,0.2255521 0.2152997,0.2255521 0.082019,0 0.1640379,-0.051262 0.2050473,-0.1332808 C 3.116096,5.1161121 2.9930676,4.6957651 2.9930676,4.1421373 c 0,-0.2358045 0,-0.3383281 0.030757,-0.4511042 A 1.0662462,1.0662462 0 0 1 3.2186197,4.2036515 0.30757101,0.30757101 0 0 0 3.310891,4.0601183 L 3.5774526,4.4292035 3.310891,4.4086988 c -0.1025237,0 -0.1332808,0.051262 -0.1332808,0.1025237 0,0.082019 0.071767,0.1640379 0.1332808,0.2050473 0.04101,-0.1025236 0.2460568,-0.082019 0.2460568,-0.082019 h 0.1025237 v 0.2050473 c 0,0.1230284 0,0.194795 -0.1025237,0.2768139 a 0.20504734,0.20504734 0 0 0 0.1332808,0.051262 c 0.1332808,0 0.1640379,-0.1025237 0.1640379,-0.3178234 v -0.061514 c 0.082019,0.082019 0.1537855,0.194795 0.1537855,0.2870663 v 0.061514 c 0.1025236,0 0.194795,-0.1127761 0.194795,-0.1845426 0,-0.1332808 -0.1742903,-0.2665616 -0.2460569,-0.3280758 h 0.030757 c 0.2050474,0 0.2255521,0.061514 0.2460569,0.1127761 A 0.27681391,0.27681391 0 0 0 4.3361277,4.5112225 c 0,-0.051262 0,-0.1230284 -0.1230284,-0.1230284 A 2.3067826,2.317035 0 0 0 3.8542665,4.4292035 C 3.7722475,4.3164275 3.6082097,4.1011278 3.5466955,3.9165852 h 0.225552 C 3.4544242,3.6295189 3.1776102,3.2501813 3.1776102,2.850339 l 0.041009,-0.2050473 h 0.020505 L 4.0593138,3.9780994 C 4.3053706,4.3471846 4.4899132,4.3471846 4.7769795,4.3471846 A 2.0914829,2.1017353 0 0 1 4.3053706,3.8140615 L 3.5466955,2.5735251 A 2.3272873,2.3375397 0 0 0 3.6697239,2.5325156 L 4.3361277,3.6295189 C 4.5821845,4.0293612 4.7667271,4.0088565 5.0640458,4.0088565 A 2.0812305,2.0914829 0 0 1 4.6026893,3.4757334 L 3.9362854,2.4094872 a 2.1427447,2.1529971 0 0 0 0.1025237,-0.082019 l 0.5331231,0.8817036 c 0.2665615,0.4100946 0.4511041,0.3895899 0.727918,0.3895899 A 2.0812305,2.0914829 0 0 1 4.8384937,3.0553864 L 4.2746135,2.1531781 A 1.3840696,1.3943219 0 0 0 4.3976419,2.0609067 L 4.7974842,2.6863011 C 5.0332887,3.0963958 5.2280837,3.0963958 5.5151499,3.0963958 A 2.0812305,2.0914829 0 0 1 5.0537934,2.5325156 L 4.5719322,1.7943452 A 1.0662462,1.0662462 0 0 0 4.6334464,1.6610644 L 4.8692508,2.0198973 Z M 7.862942,0.30775198 V 5.167374 H 7.0427527 V 0.32825671 Z M 21.037234,6.8692669 a 0.22555208,0.22555208 0 0 0 -0.205048,0.1025237 0.57413256,0.57413256 0 0 0 -0.09227,0.2973186 h 0.512618 v -0.092271 a 0.36908522,0.37933758 0 0 0 -0.06151,-0.225552 0.18454261,0.18454261 0 0 0 -0.17429,-0.082019 z m 0.420347,0.307571 v 0.1537855 l -0.0205,0.1025237 H 20.73992 c 0,0.1845426 0.04101,0.2870663 0.102524,0.3690852 a 0.31782338,0.31782338 0 0 0 0.266561,0.1230284 0.36908522,0.37933758 0 0 0 0.194795,-0.051262 0.41009468,0.41009468 0 0 0 0.09227,-0.071767 l 0.09227,0.1640379 -0.04101,0.041009 a 0.36908522,0.37933758 0 0 1 -0.08202,0.051262 0.61514203,0.61514203 0 0 1 -0.287066,0.061514 0.59463729,0.60488966 0 0 1 -0.225552,-0.030757 0.44085178,0.44085178 0 0 1 -0.17429,-0.1435331 0.63564676,0.64589913 0 0 1 -0.123029,-0.2255521 1.2302841,1.2405364 0 0 1 -0.04101,-0.3280758 1.0662462,1.0662462 0 0 1 0.04101,-0.3280757 0.62539439,0.62539439 0 0 1 0.123029,-0.2255521 0.45110415,0.45110415 0 0 1 0.358833,-0.1640379 0.39984232,0.41009468 0 0 1 0.307571,0.1435332 c 0.07177,0.061514 0.112776,0.2050473 0.112776,0.3588328 z m -1.332808,-0.809937 a 0.14353314,0.14353314 0 0 1 -0.133281,-0.030757 0.17429024,0.17429024 0 0 1 -0.03076,-0.1332807 c 0,-0.04101 0.0205,-0.082019 0.05126,-0.1025237 a 0.14353314,0.14353314 0 0 1 0.102523,-0.061514 0.13328077,0.13328077 0 0 1 0.102524,0.051262 0.17429024,0.17429024 0 0 1 0.06151,0.1230284 0.17429024,0.17429024 0 0 1 -0.05126,0.1230284 0.13328077,0.13328077 0 0 1 -0.102524,0.030757 z M 20.227297,8.099551 H 19.991492 V 6.705229 h 0.246057 z m -0.82019,-0.9637225 c 0,-0.1025237 -0.0205,-0.1640379 -0.06151,-0.2152997 a 0.23580444,0.23580444 0 0 0 -0.164038,-0.051262 0.25630918,0.25630918 0 0 0 -0.17429,0.051262 c -0.05126,0.051262 -0.06151,0.1230284 -0.06151,0.2050473 0,0.112776 0.01025,0.1845426 0.06151,0.2255521 a 0.23580444,0.23580444 0 0 0 0.164038,0.061514 c 0.06151,0 0.13328,-0.010252 0.17429,-0.061514 0.04101,-0.041009 0.06151,-0.1025237 0.06151,-0.2152997 z m -0.307571,0.922713 -0.102524,-0.010252 a 0.34858048,0.34858048 0 0 0 -0.04101,0.041009 0.26656154,0.26656154 0 0 0 -0.09227,0.2050473 c 0,0.1332808 0.08202,0.2152997 0.235804,0.2152997 0.133281,0 0.246057,-0.020505 0.307571,-0.082019 0.07177,-0.061514 0.102524,-0.1332808 0.102524,-0.2050473 0,-0.061514 -0.0205,-0.1025237 -0.06151,-0.1230284 A 0.29731865,0.29731865 0 0 0 19.27383,8.0585418 Z m 0.645899,-1.1687699 h -0.17429 a 0.53312309,0.53312309 0 0 1 0.0205,0.4408518 0.41009468,0.41009468 0 0 1 -0.235805,0.2460568 0.53312309,0.53312309 0 0 1 -0.184542,0.041009 h -0.08202 a 0.26656154,0.26656154 0 0 0 -0.06151,0.04101 0.10252367,0.10252367 0 0 0 -0.04101,0.082019 c 0,0.020505 0,0.051262 0.0205,0.061514 0.03076,0.030757 0.07177,0.030757 0.102524,0.030757 h 0.184542 l 0.184543,0.020505 a 0.41009468,0.41009468 0 0 1 0.133281,0.071766 0.30757101,0.30757101 0 0 1 0.102523,0.1025237 0.36908522,0.37933758 0 0 1 0.03076,0.1742902 0.44085178,0.44085178 0 0 1 -0.17429,0.3690853 0.65615149,0.65615149 0 0 1 -0.205047,0.1025236 0.92271304,0.93296541 0 0 1 -0.276814,0.04101 c -0.143533,0 -0.266562,-0.04101 -0.328076,-0.1025237 C 18.679189,8.5506551 18.63818,8.4583838 18.63818,8.3353554 l 0.03076,-0.1332808 a 0.41009468,0.41009468 0 0 1 0.133281,-0.1742902 l 0.07177,-0.041009 a 0.22555208,0.22555208 0 0 1 -0.09227,-0.2050473 l 0.0205,-0.082019 a 0.26656154,0.26656154 0 0 1 0.102523,-0.1025236 0.32807575,0.33832811 0 0 1 0.04101,-0.020505 0.38958995,0.38958995 0 0 1 -0.164038,-0.1640378 0.51261835,0.51261835 0 0 1 -0.06151,-0.2665616 c 0,-0.082019 0,-0.1435331 0.04101,-0.2050473 a 0.39984232,0.41009468 0 0 1 0.235804,-0.2358045 0.54337546,0.55362782 0 0 1 0.358833,0 h 0.410095 z m -1.189274,0.030757 -0.04101,-0.010252 a 0.26656154,0.26656154 0 0 0 -0.06151,-0.020505 0.23580444,0.23580444 0 0 0 -0.17429,0.061514 0.34858048,0.34858048 0 0 0 -0.08202,0.1332807 V 8.099551 H 17.961523 V 6.705229 h 0.205048 v 0.1845426 l 0.04101,-0.071767 a 0.26656154,0.26656154 0 0 1 0.07177,-0.071767 0.25630918,0.25630918 0 0 1 0.08202,-0.041009 0.31782338,0.31782338 0 0 1 0.102523,-0.030757 l 0.08202,0.020505 0.04101,0.010252 z m -1.332808,-0.051262 a 0.22555208,0.22555208 0 0 0 -0.194795,0.1025237 0.57413256,0.57413256 0 0 0 -0.08202,0.2973186 h 0.502366 v -0.092271 a 0.36908522,0.37933758 0 0 0 -0.05126,-0.225552 0.18454261,0.18454261 0 0 0 -0.164038,-0.082019 z m 0.430599,0.307571 V 7.3306234 L 17.6437,7.4331471 h -0.697161 c 0,0.1845426 0.04101,0.2870663 0.102524,0.3690852 a 0.31782338,0.31782338 0 0 0 0.276814,0.1230284 0.36908522,0.37933758 0 0 0 0.184542,-0.051262 0.43059942,0.43059942 0 0 0 0.09227,-0.071767 l 0.08202,0.1640379 -0.04101,0.041009 a 0.39984232,0.41009468 0 0 1 -0.08202,0.051262 0.54337546,0.55362782 0 0 1 -0.276814,0.061514 0.59463729,0.60488966 0 0 1 -0.22555,-0.030756 A 0.44085178,0.44085178 0 0 1 16.86452,7.9457655 0.65615149,0.65615149 0 0 1 16.761996,7.7202134 1.2302841,1.2302841 0 0 1 16.720987,7.3921376 c 0,-0.1332807 0.01025,-0.2358044 0.04101,-0.3280757 A 0.62539439,0.62539439 0 0 1 16.86452,6.8385098 0.45110415,0.45110415 0 0 1 17.243858,6.6744719 c 0.13328,0 0.225552,0.041009 0.307571,0.1435332 0.07177,0.061514 0.102523,0.2050473 0.102523,0.3588325 z M 16.218621,8.099551 V 7.1870903 A 0.41009468,0.41009468 0 0 0 16.146851,6.9410335 0.22555208,0.22555208 0 0 0 15.972561,6.8692665 0.26656154,0.26656154 0 0 0 15.808523,6.9102755 0.59463729,0.60488966 0 0 0 15.706,7.0127992 V 8.0892986 H 15.470198 V 6.6949767 h 0.205048 v 0.1640378 l 0.05126,-0.051262 a 0.36908522,0.37933758 0 0 1 0.06151,-0.071767 0.53312309,0.53312309 0 0 1 0.102523,-0.051262 0.46135652,0.47160889 0 0 1 0.307571,0 0.29731865,0.29731865 0 0 1 0.133281,0.092271 0.43059942,0.43059942 0 0 1 0.08202,0.1640379 l 0.03076,0.2358044 V 8.0892986 Z M 15.111365,6.3053867 h -0.686908 v 0.6869086 h 0.635647 v 0.2050474 h -0.635647 v 0.6869086 h 0.768927 l -0.01025,0.2050473 H 14.1784 V 6.1003394 h 0.963722 z M 12.691807,7.9150084 A 0.30757101,0.30757101 0 0 0 12.958368,7.7817276 V 6.9307811 a 0.31782338,0.31782338 0 0 0 -0.17429,-0.051262 0.39984232,0.41009468 0 0 0 -0.164038,0.030757 0.29731865,0.29731865 0 0 0 -0.133281,0.092271 0.46135652,0.47160889 0 0 0 -0.06151,0.1537855 0.88170357,0.88170357 0 0 0 -0.04101,0.2563092 l 0.03076,0.2460568 a 0.44085178,0.44085178 0 0 0 0.06151,0.1537855 0.26656154,0.26656154 0 0 0 0.102524,0.082019 0.26656154,0.26656154 0 0 0 0.102523,0.030757 z M 12.158684,7.4331471 c 0,-0.1332808 0,-0.2768139 0.05126,-0.3690852 a 0.65615149,0.65615149 0 0 1 0.133281,-0.2255521 0.48186125,0.48186125 0 0 1 0.184543,-0.1230284 0.66640386,0.66640386 0 0 1 0.338328,-0.020505 l 0.07177,0.020505 V 6.0490775 L 13.17367,6.0285725 V 8.099551 H 12.968621 V 7.9355131 A 0.30757101,0.30757101 0 0 1 12.866097,8.0380368 0.39984232,0.41009468 0 0 1 12.62004,8.1200557 0.44085178,0.44085178 0 0 1 12.44575,8.0892986 0.39984232,0.41009468 0 0 1 12.291964,7.9457655 0.66640386,0.66640386 0 0 1 12.189441,7.7407181 1.1892746,1.1892746 0 0 1 12.148431,7.4126424 Z M 11.646065,8.099551 V 7.1870903 c 0,-0.112776 -0.0205,-0.2050473 -0.06151,-0.2460568 a 0.26656154,0.26656154 0 0 0 -0.184543,-0.071767 0.26656154,0.26656154 0 0 0 -0.164037,0.041009 0.59463729,0.60488966 0 0 0 -0.102524,0.1025237 V 8.0892986 H 10.897642 V 6.6949767 h 0.205048 v 0.1640378 l 0.04101,-0.051262 a 0.36908522,0.37933758 0 0 1 0.08202,-0.071767 0.54337546,0.55362782 0 0 1 0.102524,-0.051262 0.46135652,0.47160889 0 0 1 0.307571,0 0.29731865,0.29731865 0 0 1 0.133281,0.092271 0.43059942,0.43059942 0 0 1 0.07177,0.1640379 c 0.0205,0.061514 0.0205,0.1332808 0.0205,0.2358044 v 0.9124607 z m -1.097003,0 h -0.2153 V 7.9355131 l -0.04101,0.051262 a 0.39984232,0.41009468 0 0 1 -0.17429,0.1230284 0.45110415,0.45110415 0 0 1 -0.3075712,0 A 0.29731865,0.29731865 0 0 1 9.677611,8.017532 0.39984232,0.41009468 0 0 1 9.6160968,7.8534942 0.88170357,0.88170357 0 0 1 9.5853397,7.6176897 V 6.705229 h 0.2255521 v 0.9022083 c 0,0.1127761 0.020505,0.2050474 0.061514,0.2358045 0.030757,0.051262 0.092271,0.082019 0.1640382,0.082019 a 0.26656154,0.26656154 0 0 0 0.17429,-0.051262 0.59463729,0.60488966 0 0 0 0.102524,-0.1025237 V 6.705229 h 0.235804 z M 23.385026,3.9986041 h -0.287067 v 0.7586752 c 0,0.1025237 0,0.1742902 0.0205,0.2050473 0.03076,0.030757 0.07177,0.04101 0.133281,0.04101 h 0.08202 a 0.31782338,0.31782338 0 0 0 0.05126,-0.04101 l 0.04101,0.194795 -0.06151,0.04101 a 0.35883285,0.35883285 0 0 1 -0.143533,0.020505 c -0.133281,0 -0.2153,-0.04101 -0.266562,-0.1025237 A 0.51261835,0.51261835 0 0 1 22.851903,4.7880364 V 3.9883518 H 22.698117 V 3.8345663 l 0.164038,-0.030757 0.0205,-0.4100947 h 0.205047 v 0.4100947 h 0.328076 z m -0.789433,0 h -0.297318 v 1.199527 H 22.072723 V 3.9883518 H 21.908685 V 3.8345663 l 0.164038,-0.030757 V 3.5372476 c 0,-0.082019 0,-0.1537855 0.03076,-0.2050473 a 0.38958995,0.38958995 0 0 1 0.09227,-0.1332808 0.29731865,0.29731865 0 0 1 0.112776,-0.082019 0.45110415,0.45110415 0 0 1 0.266562,0 0.44085178,0.44085178 0 0 1 0.07177,0.030757 l -0.05126,0.2050473 a 0.26656154,0.26656154 0 0 0 -0.04101,-0.030757 0.20504734,0.20504734 0 0 0 -0.08202,0 c -0.05126,0 -0.102524,0 -0.133281,0.041009 -0.03076,0.041009 -0.04101,0.092271 -0.04101,0.1845426 v 0.2563092 h 0.307571 z m -1.384069,1.0252367 a 0.23580444,0.23580444 0 0 0 0.143533,-0.061514 0.23580444,0.23580444 0 0 0 0.05126,-0.030757 1.0662462,1.0662462 0 0 1 0.03076,-0.041009 v -0.307571 h -0.07177 a 0.53312309,0.53312309 0 0 0 -0.266561,0.051262 0.23580444,0.23580444 0 0 0 -0.06151,0.1742902 c 0,0.061514 0,0.1332808 0.04101,0.1537855 a 0.17429024,0.17429024 0 0 0 0.133281,0.061514 z M 20.801429,4.8290459 a 0.36908522,0.37933758 0 0 1 0.17429,-0.3280758 0.51261835,0.51261835 0 0 1 0.164038,-0.071767 1.0662462,1.0662462 0 0 1 0.225552,-0.020505 h 0.07177 V 4.275418 c 0,-0.1230284 -0.0205,-0.2050473 -0.06151,-0.2460568 a 0.22555208,0.22555208 0 0 0 -0.164038,-0.061514 0.30757101,0.30757101 0 0 0 -0.17429,0.030757 0.92271304,0.93296541 0 0 0 -0.102524,0.082019 L 20.832186,3.9370899 a 0.46135652,0.47160889 0 0 1 0.133281,-0.1025236 0.57413256,0.57413256 0 0 1 0.266562,-0.071767 c 0.13328,0 0.256309,0.041009 0.317823,0.1332808 0.08202,0.071766 0.102524,0.1845426 0.102524,0.3793375 v 0.7996847 l 0.03076,0.1025236 H 21.457581 V 5.0340932 h -0.01025 A 0.39984232,0.41009468 0 0 1 21.406321,5.0853552 0.29731865,0.29731865 0 0 1 21.27304,5.1878789 0.35883285,0.35883285 0 0 1 20.903955,5.1058599 0.35883285,0.35883285 0 0 1 20.821935,5.0033362 0.45110415,0.45110415 0 0 1 20.791175,4.829046 Z M 20.299063,5.1776263 V 4.2959228 c 0,-0.1332808 -0.01025,-0.2050474 -0.05126,-0.2665616 a 0.22555208,0.22555208 0 0 0 -0.17429,-0.061514 0.26656154,0.26656154 0 0 0 -0.17429,0.051262 0.61514203,0.61514203 0 0 0 -0.102524,0.1025236 V 5.1981311 H 19.560893 V 3.1374053 l 0.235804,-0.030757 v 0.8201894 l 0.04101,-0.041009 a 0.30757101,0.30757101 0 0 1 0.06151,-0.051262 0.43059942,0.43059942 0 0 1 0.256309,-0.071767 c 0.102524,0 0.205047,0.030757 0.266562,0.1025237 0.08202,0.082019 0.123028,0.2152997 0.123028,0.4100946 V 5.167374 H 20.299063 Z M 19.232817,4.0703707 A 0.99447961,1.004732 0 0 0 19.16105,3.9986041 0.31782338,0.31782338 0 0 0 18.997012,3.967847 c -0.05126,0 -0.102523,0 -0.13328,0.020505 a 0.27681391,0.27681391 0 0 0 -0.123029,0.1025236 0.45110415,0.45110415 0 0 0 -0.07177,0.1435332 1.1482651,1.1482651 0 0 0 0,0.4921136 l 0.06151,0.1742902 a 0.25630918,0.25630918 0 0 0 0.102524,0.082019 0.31782338,0.31782338 0 0 0 0.13328,0.020505 c 0.07177,0 0.133281,0 0.164038,-0.020505 a 0.51261835,0.51261835 0 0 0 0.08202,-0.071767 l 0.09227,0.1640379 A 0.38958995,0.38958995 0 0 1 19.099536,5.2083834 0.59463729,0.60488966 0 0 1 18.730451,5.1776263 0.43059942,0.43059942 0 0 1 18.556161,5.0443456 0.62539439,0.62539439 0 0 1 18.453637,4.8392982 1.1687698,1.1790222 0 0 1 18.402375,4.4804654 c 0,-0.1332808 0.0205,-0.2358045 0.05126,-0.3280758 a 0.62539439,0.62539439 0 0 1 0.133281,-0.225552 0.51261835,0.51261835 0 0 1 0.184542,-0.1230284 0.56388019,0.56388019 0 0 1 0.440852,0.010252 0.32807575,0.33832811 0 0 1 0.06151,0.041009 1.0149843,1.0252367 0 0 1 0.04101,0.051262 z m -1.16877,0 a 0.58438492,0.58438492 0 0 0 -0.08202,-0.071767 0.25630918,0.25630918 0 0 0 -0.153785,-0.030757 0.20504734,0.20504734 0 0 0 -0.133281,0.030757 0.13328077,0.13328077 0 0 0 -0.05126,0.1025237 c 0,0.061514 0,0.1025237 0.04101,0.1435331 a 0.63564676,0.64589913 0 0 0 0.133281,0.1025237 l 0.09227,0.061514 a 0.85094647,0.86119884 0 0 1 0.205047,0.1742903 0.38958995,0.38958995 0 0 1 0.08202,0.2460568 0.36908522,0.37933758 0 0 1 -0.102524,0.2768139 c -0.08202,0.071766 -0.184542,0.112776 -0.338328,0.112776 a 0.56388019,0.56388019 0 0 1 -0.307571,-0.1025237 0.45110415,0.45110415 0 0 1 -0.06151,-0.051262 l 0.102524,-0.194795 a 1.2610412,1.2712935 0 0 0 0.102523,0.1025237 0.30757101,0.30757101 0 0 0 0.164038,0.051262 c 0.08202,0 0.133281,-0.030757 0.164038,-0.061514 a 0.13328077,0.13328077 0 0 0 0.05126,-0.1025236 0.26656154,0.26656154 0 0 0 0,-0.1025237 0.18454261,0.18454261 0 0 0 -0.04101,-0.061514 2.4605681,2.4708205 0 0 0 -0.143533,-0.1025237 L 17.684709,4.5419796 A 0.82018937,0.82018937 0 0 1 17.489915,4.3676893 0.36908522,0.37933758 0 0 1 17.4284,4.1216325 0.32807575,0.33832811 0 0 1 17.530924,3.855071 0.44085178,0.44085178 0 0 1 17.81799,3.7525473 l 0.133281,0.020505 a 0.39984232,0.41009468 0 0 1 0.164038,0.1025236 0.72791806,0.73817043 0 0 1 0.04101,0.030757 z m -0.850946,-0.082019 h -0.287067 v 0.7689275 c 0,0.1025237 0,0.1742902 0.0205,0.2050473 0.03076,0.030757 0.07177,0.04101 0.133281,0.04101 h 0.08202 a 0.29731865,0.29731865 0 0 0 0.05126,-0.04101 l 0.04101,0.194795 -0.06151,0.04101 a 0.35883285,0.35883285 0 0 1 -0.153786,0.020505 c -0.112776,0 -0.205047,-0.04101 -0.266561,-0.1025237 A 0.51261835,0.51261835 0 0 1 16.679978,4.7880364 V 3.9883518 H 16.526192 V 3.8345663 l 0.153786,-0.030757 0.03076,-0.4100947 h 0.205047 v 0.4100947 h 0.328076 z m -0.799685,0.010252 h -0.04101 a 0.26656154,0.26656154 0 0 0 -0.07177,0 0.23580444,0.23580444 0 0 0 -0.17429,0.041009 0.34858048,0.34858048 0 0 0 -0.08202,0.1332808 v 1.0047328 h -0.2358 V 3.8038092 h 0.205048 v 0.1845426 l 0.04101,-0.082019 a 0.26656154,0.26656154 0 0 1 0.07177,-0.061514 0.25630918,0.25630918 0 0 1 0.07177,-0.051262 0.31782338,0.31782338 0 0 1 0.102524,-0.020505 h 0.09227 l 0.04101,0.030757 z M 15.34717,3.465481 A 0.14353314,0.14353314 0 0 1 15.234394,3.414219 0.17429024,0.17429024 0 0 1 15.193384,3.2911906 c 0,-0.041009 0,-0.071767 0.04101,-0.112776 a 0.14353314,0.14353314 0 0 1 0.112776,-0.041009 0.13328077,0.13328077 0 0 1 0.102523,0.041009 0.17429024,0.17429024 0 0 1 0.05126,0.1332807 0.17429024,0.17429024 0 0 1 -0.04101,0.1025237 0.13328077,0.13328077 0 0 1 -0.102524,0.051262 z m 0.102523,1.7121453 H 15.234394 V 3.8038092 h 0.225552 z M 15.019094,3.1886671 14.537233,5.1981311 H 14.311681 L 14.024614,3.9268376 a 6.4589913,6.4897484 0 0 1 -0.08202,-0.4305995 8.48896,8.5402218 0 0 1 -0.08202,0.4100947 L 13.553006,5.167374 H 13.347958 L 12.876349,3.1784148 h 0.266562 l 0.235804,1.2097793 a 8.7350168,8.7760262 0 0 1 0.07177,0.4613565 l 0.04101,-0.2050473 0.05126,-0.2665616 0.287066,-1.1995269 h 0.246057 l 0.276814,1.2097793 a 17.244481,17.336753 0 0 1 0.08202,0.4613565 l 0.04101,-0.2050473 a 10.324134,10.385648 0 0 1 0.05126,-0.2665616 l 0.235805,-1.1995269 h 0.256309 z m -2.72713,0.8201894 -0.03076,-0.020505 a 0.26656154,0.26656154 0 0 0 -0.08202,0 0.23580444,0.23580444 0 0 0 -0.164038,0.051262 0.34858048,0.34858048 0 0 0 -0.08202,0.1332808 v 1.004732 H 11.687075 V 3.8038092 h 0.215299 v 0.1845426 l 0.04101,-0.082019 a 0.26656154,0.26656154 0 0 1 0.133281,-0.112776 0.31782338,0.31782338 0 0 1 0.13328,-0.020505 h 0.07177 l 0.03076,0.030757 z m -1.066246,-0.615142 a 0.13328077,0.13328077 0 0 1 -0.05126,0.112776 0.13328077,0.13328077 0 0 1 -0.102523,0.041009 0.13328077,0.13328077 0 0 1 -0.08202,-0.041009 0.13328077,0.13328077 0 0 1 -0.04101,-0.1025237 c 0,-0.041009 0.01025,-0.082019 0.04101,-0.1025236 a 0.13328077,0.13328077 0 0 1 0.09227,-0.051262 0.13328077,0.13328077 0 0 1 0.09227,0.041009 0.13328077,0.13328077 0 0 1 0.04101,0.1025237 z m -0.440852,0 A 0.13328077,0.13328077 0 0 1 10.743857,3.5064905 0.13328077,0.13328077 0 0 1 10.641333,3.5475 0.13328077,0.13328077 0 0 1 10.53881,3.5064905 0.13328077,0.13328077 0 0 1 10.508053,3.4039668 c 0,-0.041009 0.01025,-0.082019 0.04101,-0.1025236 a 0.13328077,0.13328077 0 0 1 0.102524,-0.051262 0.13328077,0.13328077 0 0 1 0.102523,0.041009 0.13328077,0.13328077 0 0 1 0.04101,0.1025237 z m 0.563881,1.7839118 h -0.2153 V 5.0340932 l -0.04101,0.04101 a 0.35883285,0.35883285 0 0 1 -0.06151,0.061514 0.48186125,0.48186125 0 0 1 -0.102523,0.061514 0.45110415,0.45110415 0 0 1 -0.307571,0 0.29731865,0.29731865 0 0 1 -0.143534,-0.1025237 0.39984232,0.41009468 0 0 1 -0.06151,-0.1435331 0.89195594,0.89195594 0 0 1 -0.03076,-0.2358045 v -0.922713 h 0.225552 v 0.8817036 c 0,0.112776 0.03076,0.2050473 0.05126,0.2563091 0.04101,0.051262 0.102524,0.061514 0.17429,0.061514 a 0.26656154,0.26656154 0 0 0 0.174291,-0.041009 0.57413256,0.57413256 0 0 0 0.102523,-0.1025237 V 3.7935568 H 11.34875 Z M 10.159472,3.9883518 H 9.8929107 V 5.1981311 H 9.6571063 V 3.9883518 H 9.4930684 V 3.8345663 L 9.6571063,3.8038092 V 3.5372476 c 0,-0.082019 0.010252,-0.1537855 0.041009,-0.2050473 a 0.39984232,0.41009468 0 0 1 0.082019,-0.1332808 0.30757101,0.30757101 0 0 1 0.112776,-0.082019 0.45110415,0.45110415 0 0 1 0.2665617,0 0.41009468,0.41009468 0 0 1 0.07177,0.030757 l -0.06151,0.2050473 -0.03076,-0.030757 a 0.20504734,0.20504734 0 0 0 -0.08202,0 c -0.05126,0 -0.1025245,0 -0.1332816,0.041009 L 9.8929107,3.5475 V 3.8038092 H 10.200482 Z M 28.019096,2.2762065 v -0.891956 a 0.46135652,0.47160889 0 0 0 -0.05126,-0.2460568 c -0.03076,-0.051262 -0.08202,-0.082019 -0.143533,-0.082019 a 0.31782338,0.31782338 0 0 0 -0.246057,0.1025236 0.67665623,0.6869086 0 0 0 -0.04101,0.051262 V 2.2659541 H 27.30143 V 0.88188453 h 0.205047 V 1.0459224 A 0.48186125,0.48186125 0 0 1 27.639758,0.91264163 0.39984232,0.41009468 0 0 1 27.86531,0.8613798 c 0.153786,0 0.266562,0.0512618 0.328076,0.1742902 a 0.44085178,0.44085178 0 0 1 0.358833,-0.1742902 c 0.266561,0 0.410094,0.1537855 0.410094,0.4818613 v 0.9329654 h -0.235804 v -0.891956 c 0,-0.1025237 -0.0205,-0.194795 -0.06151,-0.2460568 -0.04101,-0.051262 -0.102524,-0.082019 -0.174291,-0.082019 a 0.26656154,0.26656154 0 0 0 -0.164037,0.061514 0.61514203,0.61514203 0 0 0 -0.102524,0.092271 v 0.061514 l 0.01025,0.071767 v 0.9329654 z m -1.066247,0 H 26.747802 V 2.1121686 l -0.04101,0.061514 a 0.36908522,0.37933758 0 0 1 -0.08202,0.061514 0.48186125,0.48186125 0 0 1 -0.102524,0.051262 0.45110415,0.45110415 0 0 1 -0.307571,0 0.29731865,0.29731865 0 0 1 -0.123028,-0.092271 0.39984232,0.41009468 0 0 1 -0.07177,-0.1537855 0.89195594,0.89195594 0 0 1 -0.0205,-0.2460568 V 0.88188453 h 0.225552 V 1.7840928 c 0,0.1025237 0.01025,0.2050474 0.05126,0.2358045 0.04101,0.061514 0.102524,0.082019 0.17429,0.082019 a 0.26656154,0.26656154 0 0 0 0.174291,-0.051262 0.58438492,0.58438492 0 0 0 0.102523,-0.1025237 V 0.8921369 h 0.225552 z M 25.52777,0.55380879 a 0.14353314,0.14353314 0 0 1 -0.102523,-0.0410095 0.17429024,0.17429024 0 0 1 -0.04101,-0.13328077 c 0,-0.0410095 0,-0.0820189 0.04101,-0.10252368 a 0.14353314,0.14353314 0 0 1 0.102523,-0.0615142 0.13328077,0.13328077 0 0 1 0.123029,0.0512618 0.16403787,0.16403787 0 0 1 0.04101,0.1230284 0.17429024,0.17429024 0 0 1 -0.04101,0.12302841 0.13328077,0.13328077 0 0 1 -0.123029,0.0410095 z M 25.650799,2.2659541 H 25.425247 V 0.88188453 h 0.225552 z m -0.451104,-1.1790222 -0.04101,-0.020505 a 0.26656154,0.26656154 0 0 0 -0.08202,0 0.22555208,0.22555208 0 0 0 -0.17429,0.051262 0.34858048,0.34858048 0 0 0 -0.07177,0.1332807 V 2.2762065 H 24.605057 V 0.87163217 h 0.205048 V 1.0664271 l 0.04101,-0.0820189 a 0.26656154,0.26656154 0 0 1 0.133281,-0.1230284 0.31782338,0.31782338 0 0 1 0.102524,0 h 0.08202 l 0.06151,0.0102524 z M 23.866887,1.03567 a 0.22555208,0.22555208 0 0 0 -0.205047,0.1025237 0.57413256,0.57413256 0 0 0 -0.08202,0.307571 h 0.492113 V 1.3432411 A 0.36908522,0.37933758 0 0 0 24.030925,1.117689 0.18454261,0.18454261 0 0 0 23.856634,1.03567 Z m 0.430599,0.3075711 v 0.1640378 l -0.03076,0.1025237 h -0.686908 c 0,0.1640379 0.04101,0.2870663 0.102523,0.3588328 a 0.30757101,0.30757101 0 0 0 0.266562,0.1230285 0.36908522,0.37933758 0 0 0 0.184542,-0.051262 0.43059942,0.43059942 0 0 0 0.102524,-0.071767 l 0.08202,0.1640379 -0.04101,0.041009 A 0.36908522,0.37933758 0 0 1 24.205209,2.2249438 0.61514203,0.61514203 0 0 1 23.90789,2.2967108 0.59463729,0.60488966 0 0 1 23.682338,2.2557018 0.44085178,0.44085178 0 0 1 23.508048,2.1224211 0.63564676,0.64589913 0 0 1 23.38502,1.896869 1.2302841,1.2302841 0 0 1 23.35426,1.5585409 c 0,-0.1332808 0,-0.2255521 0.03076,-0.3178234 A 0.62539439,0.62539439 0 0 1 23.508048,1.004913 0.45110415,0.45110415 0 0 1 23.866881,0.85112753 0.39984232,0.41009468 0 0 1 24.174452,0.97415594 C 24.256472,1.0459225 24.29748,1.1792033 24.29748,1.3432412 Z M 23.169726,1.0766795 H 22.88266 v 0.7586752 c 0,0.1025236 0,0.1640378 0.03076,0.2050473 0.0205,0.04101 0.06151,0.051262 0.13328,0.051262 l 0.07177,-0.010252 a 0.26656154,0.26656154 0 0 0 0.07177,-0.020505 l 0.04101,0.194795 -0.07177,0.030757 a 0.35883285,0.35883285 0 0 1 -0.143534,0.020505 c -0.13328,0 -0.215299,-0.030757 -0.266561,-0.1025237 A 0.52287072,0.52287072 0 0 1 22.646855,1.8763641 V 1.0766795 H 22.49307 V 0.922894 l 0.164038,-0.0410095 0.0205,-0.37933758 h 0.2153 v 0.39984232 h 0.317823 z m -0.973975,0.082019 a 0.57413256,0.57413256 0 0 0 -0.102524,-0.051262 0.26656154,0.26656154 0 0 0 -0.153785,-0.041009 c -0.07177,0 -0.102524,0 -0.133281,0.041009 a 0.13328077,0.13328077 0 0 0 -0.05126,0.1025237 c 0,0.041009 0.01025,0.1025237 0.04101,0.1332808 a 0.63564676,0.64589913 0 0 0 0.13328,0.1025236 l 0.09227,0.041009 a 0.85094647,0.86119884 0 0 1 0.205047,0.194795 0.36908522,0.37933758 0 0 1 0.08202,0.2358044 0.36908522,0.37933758 0 0 1 -0.102524,0.2665616 0.38958995,0.38958995 0 0 1 -0.317823,0.1332807 0.56388019,0.56388019 0 0 1 -0.317823,-0.1435331 0.56388019,0.56388019 0 0 1 -0.06151,-0.041009 l 0.102524,-0.1845426 a 1.8454261,1.8454261 0 0 0 0.112776,0.082019 0.32807575,0.33832811 0 0 0 0.17429,0.051262 c 0.07177,0 0.123029,-0.010252 0.143534,-0.051262 a 0.13328077,0.13328077 0 0 0 0.06151,-0.1025236 0.26656154,0.26656154 0 0 0 0,-0.092271 0.18454261,0.18454261 0 0 0 -0.04101,-0.061514 2.8501581,2.8706628 0 0 0 -0.153785,-0.1025237 l -0.09227,-0.071767 A 0.8406941,0.8406941 0 0 1 21.611366,1.42526 0.36908522,0.37933758 0 0 1 21.549852,1.1792032 c 0,-0.030757 0,-0.092271 0.03076,-0.1332808 a 0.34858048,0.34858048 0 0 1 0.08202,-0.11277603 0.44085178,0.44085178 0 0 1 0.276814,-0.10252367 l 0.133281,0.0205047 a 0.39984232,0.41009468 0 0 1 0.17429,0.0922713 1.0149843,1.0252367 0 0 1 0.04101,0.0410095 z M 21.129505,0.54355642 a 0.14353314,0.14353314 0 0 1 -0.102524,-0.0410095 0.17429024,0.17429024 0 0 1 -0.05126,-0.13328077 0.14353314,0.14353314 0 0 1 0.164038,-0.16403787 0.13328077,0.13328077 0 0 1 0.102524,0.0512618 0.17429024,0.17429024 0 0 1 0.04101,0.12302841 0.17429024,0.17429024 0 0 1 -0.04101,0.1230284 0.13328077,0.13328077 0 0 1 -0.102524,0.0410095 z M 21.262786,2.2659541 H 21.016729 V 0.88188453 h 0.225552 z m -0.799685,0 V 1.3739982 A 0.41009468,0.41009468 0 0 0 20.391334,1.117689 C 20.350324,1.066427 20.288811,1.045922 20.206792,1.045922 A 0.26656154,0.26656154 0 0 0 20.053006,1.086931 0.61514203,0.61514203 0 0 0 19.950483,1.1894546 V 2.2659541 H 19.704426 V 0.88188453 h 0.205047 V 1.0459224 l 0.06151,-0.0615142 a 0.38958995,0.38958995 0 0 1 0.08202,-0.0717666 0.53312309,0.53312309 0 0 1 0.102524,-0.0512618 0.46135652,0.47160889 0 0 1 0.307571,0 0.29731865,0.29731865 0 0 1 0.133281,0.0922713 0.41009468,0.41009468 0 0 1 0.06151,0.1640379 c 0.03076,0.061514 0.03076,0.1332807 0.03076,0.2358044 V 2.2659541 Z M 19.232817,0.54355642 a 0.14353314,0.14353314 0 0 1 -0.102524,-0.0410095 0.17429024,0.17429024 0 0 1 -0.04101,-0.13328077 c 0,-0.0410095 0,-0.0820189 0.04101,-0.10252367 a 0.14353314,0.14353314 0 0 1 0.102524,-0.0615142 0.13328077,0.13328077 0 0 1 0.123028,0.0512618 0.17429024,0.17429024 0 0 1 0.04101,0.12302841 0.17429024,0.17429024 0 0 1 -0.04101,0.1230284 0.13328077,0.13328077 0 0 1 -0.123028,0.0410095 z M 19.355845,2.2659541 H 19.130293 V 0.88188453 h 0.225552 z m -1.51735,0 V 1.3739982 a 0.46135652,0.47160889 0 0 0 -0.05126,-0.2460569 c -0.03076,-0.051262 -0.08202,-0.082019 -0.143533,-0.082019 A 0.31782338,0.31782338 0 0 0 17.397645,1.148446 0.59463729,0.60488966 0 0 0 17.356635,1.199708 V 2.2659541 H 17.120829 V 0.88188453 h 0.205048 V 1.0459224 a 0.41009468,0.41009468 0 0 1 0.225552,-0.17429023 0.38958995,0.38958995 0 0 1 0.13328,-0.0102524 c 0.153786,0 0.266562,0.0512618 0.328076,0.17429023 a 0.44085178,0.44085178 0 0 1 0.358833,-0.17429023 c 0.266562,0 0.399842,0.15378553 0.399842,0.48186133 v 0.9329654 h -0.205047 v -0.891956 c 0,-0.1025237 -0.03076,-0.194795 -0.07177,-0.2460568 -0.04101,-0.051262 -0.102523,-0.082019 -0.17429,-0.082019 a 0.26656154,0.26656154 0 0 0 -0.164038,0.061514 0.61514203,0.61514203 0 0 0 -0.102523,0.092271 v 0.061514 l 0.01025,0.071767 V 2.2762065 Z M 16.731239,1.1689508 a 0.58438492,0.58438492 0 0 0 -0.08202,-0.051262 0.25630918,0.25630918 0 0 0 -0.153785,-0.041009 0.20504734,0.20504734 0 0 0 -0.133281,0.041009 0.13328077,0.13328077 0 0 0 -0.05126,0.1025236 c 0,0.041009 0,0.1025237 0.03076,0.1332808 a 0.63564676,0.64589913 0 0 0 0.133281,0.1025237 l 0.102524,0.04101 a 0.85094647,0.86119884 0 0 1 0.205047,0.1947949 0.38958995,0.38958995 0 0 1 0.08202,0.2358045 0.36908522,0.37933758 0 0 1 -0.102524,0.2665615 c -0.08202,0.1025237 -0.184542,0.1332808 -0.338328,0.1332808 a 0.56388019,0.56388019 0 0 1 -0.307571,-0.1435331 0.48186125,0.48186125 0 0 1 -0.05126,-0.041009 l 0.102524,-0.1845426 a 1.0252367,1.0252367 0 0 0 0.102524,0.082019 0.30757101,0.30757101 0 0 0 0.17429,0.051262 c 0.07177,0 0.133281,-0.010252 0.153786,-0.051262 a 0.13328077,0.13328077 0 0 0 0.05126,-0.1025237 0.26656154,0.26656154 0 0 0 0,-0.092271 0.18454261,0.18454261 0 0 0 -0.04101,-0.061514 2.1735018,2.1837542 0 0 0 -0.143533,-0.1025236 l -0.09227,-0.071767 A 0.82018937,0.82018937 0 0 1 16.167359,1.4355124 0.36908522,0.37933758 0 0 1 16.105845,1.1894555 c 0,-0.030757 0,-0.092271 0.03076,-0.1332807 a 0.34858048,0.34858048 0 0 1 0.07177,-0.11277606 0.44085178,0.44085178 0 0 1 0.287066,-0.10252368 l 0.133281,0.0205047 a 0.39984232,0.41009468 0 0 1 0.17429,0.0922713 0.72791806,0.73817043 0 0 1 0.03076,0.0410095 z M 15.398432,1.03567 a 0.22555208,0.22555208 0 0 0 -0.184543,0.1230284 0.56388019,0.56388019 0 0 0 -0.09227,0.2870663 h 0.512618 V 1.3534934 A 0.36908522,0.37933758 0 0 0 15.572722,1.1279413 0.18454261,0.18454261 0 0 0 15.398432,1.03567 Z m 0.440851,0.3178234 v 0.1640379 l -0.0205,0.1025237 h -0.697161 c 0,0.1640378 0.04101,0.2870662 0.102523,0.3588328 a 0.31782338,0.31782338 0 0 0 0.266562,0.1230284 0.36908522,0.37933758 0 0 0 0.194795,-0.051262 0.41009468,0.41009468 0 0 0 0.09227,-0.071767 l 0.09227,0.1640379 -0.04101,0.041009 a 0.36908522,0.37933758 0 0 1 -0.08202,0.051262 0.56388019,0.56388019 0 0 1 -0.297319,0.071767 0.59463729,0.60488966 0 0 1 -0.225552,-0.041009 0.44085178,0.44085178 0 0 1 -0.164037,-0.1332808 0.65615149,0.65615149 0 0 1 -0.123029,-0.2255521 1.2302841,1.2405364 0 0 1 -0.04101,-0.3383281 1.0662462,1.0662462 0 0 1 0.04101,-0.3178234 0.62539439,0.62539439 0 0 1 0.123029,-0.2358044 0.45110415,0.45110415 0 0 1 0.358832,-0.1537855 0.39984232,0.41009468 0 0 1 0.307571,0.1230284 c 0.07177,0.0717666 0.112776,0.2050473 0.112776,0.3690852 z M 14.127138,2.1019162 A 0.30757101,0.30757101 0 0 0 14.3937,1.9686354 V 1.117689 a 0.31782338,0.31782338 0 0 0 -0.174291,-0.061514 0.39984232,0.41009468 0 0 0 -0.164037,0.030757 0.29731865,0.29731865 0 0 0 -0.112776,0.1025236 0.46135652,0.47160889 0 0 0 -0.08202,0.1537856 0.88170357,0.88170357 0 0 0 -0.03076,0.2563091 c 0,0.092271 0,0.1742903 0.03076,0.2358045 a 0.45110415,0.45110415 0 0 0 0.06151,0.1640378 0.26656154,0.26656154 0 0 0 0.102523,0.082019 0.26656154,0.26656154 0 0 0 0.102524,0.020505 z M 13.594015,1.6098026 c 0,-0.1435331 0.01025,-0.2665615 0.05126,-0.3588329 a 0.63564676,0.64589913 0 0 1 0.133281,-0.2358044 0.48186125,0.48186125 0 0 1 0.205047,-0.11277603 0.66640386,0.66640386 0 0 1 0.307571,-0.0307571 l 0.08202,0.0307571 v -0.6869086 l 0.246057,-0.0205047 V 2.2659541 h -0.2153 V 2.122421 A 0.31782338,0.31782338 0 0 1 14.301428,2.2249446 0.36908522,0.37933758 0 0 1 14.065624,2.2967112 0.39984232,0.41009468 0 0 1 13.737548,2.1326733 0.66640386,0.66640386 0 0 1 13.635024,1.927626 1.1995269,1.1995269 0 0 1 13.594015,1.5995502 Z m -0.512618,0.6664039 v -0.891956 a 0.41009468,0.41009468 0 0 0 -0.06151,-0.2563092 c -0.04101,-0.051262 -0.102523,-0.071767 -0.17429,-0.071767 a 0.26656154,0.26656154 0 0 0 -0.17429,0.041009 0.59463729,0.60488966 0 0 0 -0.102524,0.1025237 V 2.2762065 H 12.322722 V 0.88188453 h 0.205047 V 1.0459224 l 0.04101,-0.0512618 a 0.36908522,0.37933758 0 0 1 0.07177,-0.0717666 0.53312309,0.53312309 0 0 1 0.102524,-0.0512618 0.46135652,0.47160889 0 0 1 0.307571,0 0.29731865,0.29731865 0 0 1 0.13328,0.10252367 0.41009468,0.41009468 0 0 1 0.08202,0.15378543 l 0.0205,0.2358045 v 0.922713 z m -1.097004,0 H 11.779346 V 2.1121686 l -0.05126,0.071767 a 0.36908522,0.37933758 0 0 1 -0.06151,0.071766 0.48186125,0.48186125 0 0 1 -0.102524,0.051262 0.45110415,0.45110415 0 0 1 -0.307571,0 0.29731865,0.29731865 0 0 1 -0.123028,-0.1025237 0.39984232,0.41009468 0 0 1 -0.08202,-0.1537855 0.89195594,0.89195594 0 0 1 -0.03076,-0.2460568 V 0.88188453 h 0.225552 V 1.7840928 c 0,0.1025237 0.03076,0.2050474 0.07177,0.2358045 0.0205,0.061514 0.09227,0.082019 0.153785,0.082019 a 0.26656154,0.26656154 0 0 0 0.17429,-0.051262 0.58438492,0.58438492 0 0 0 0.102524,-0.1025237 V 0.8921369 h 0.235804 z M 10.467043,1.7123263 A 0.31782338,0.31782338 0 0 0 10.364519,1.4662695 C 10.292753,1.3945029 10.200482,1.3637458 10.056949,1.3637458 H 9.9031631 v 0.6971609 h 0.1435329 c 0.153786,0 0.256309,-0.020505 0.328076,-0.082019 0.06151,-0.061514 0.09227,-0.1435331 0.09227,-0.2665615 z M 10.426034,0.81011796 A 0.29731865,0.29731865 0 0 0 10.32351,0.57431352 C 10.262,0.51279932 10.169725,0.48204222 10.015939,0.48204222 H 9.8929107 V 1.1689508 h 0.1332803 c 0.133281,0 0.235805,-0.030757 0.307571,-0.1025237 a 0.35883285,0.35883285 0 0 0 0.09227,-0.25630914 z m 0.266561,-0.0205047 c 0,0.0717666 -0.03076,0.13328077 -0.04101,0.19479497 a 0.43059942,0.43059942 0 0 1 -0.07177,0.13328077 0.35883285,0.35883285 0 0 1 -0.102524,0.071767 0.49211362,0.49211362 0 0 1 -0.123028,0.061514 0.43059942,0.43059942 0 0 1 0.266562,0.1537856 0.51261835,0.51261835 0 0 1 0.102523,0.3280757 0.57413256,0.57413256 0 0 1 -0.03076,0.2255521 0.44085178,0.44085178 0 0 1 -0.133281,0.1537855 0.58438492,0.58438492 0 0 1 -0.205047,0.1230284 1.0149843,1.0252367 0 0 1 -0.307571,0.041009 H 9.6571063 V 0.26674251 h 0.3690847 c 0.123029,0 0.205048,0.0307571 0.307571,0.0615142 a 0.56388019,0.56388019 0 0 1 0.205048,0.0922713 0.38958995,0.38958995 0 0 1 0.102523,0.15378551 c 0.0205,0.0717666 0.03076,0.13328077 0.03076,0.21529971 z"
     id="path10"
     style="stroke-width:1.02524" />
</svg>
