<svg width="583" height="206" viewBox="0 0 583 206" fill="none" xmlns="http://www.w3.org/2000/svg">
<path d="M204.8 90.8L186 86.4L202 75.6L178.1 75.3L178.6 78.1L193.7 78V78.1L179.8 87.5L196.1 91.4V91.5L182 96.8L182.5 99.6L204.8 90.8ZM193 61.7L195.3 60.5L189.7 49.8L169.7 60.2L175.3 70.9L177.6 69.7L173.3 61.5L180.8 57.6L185 65.6L187.3 64.4L183.2 56.4L188.8 53.5L193 61.7ZM174.7 47.3C180.2 42.2 179 35.6 174.4 30.5L171.3 27.1L154.7 42.3L157.8 45.7C162.5 50.9 169 52.5 174.7 47.3ZM172.7 45.3C167.9 49.7 163 47.5 159.1 43.3L158.4 42.6L171.2 30.8L171.9 31.5C175.7 35.8 177.5 40.9 172.7 45.3ZM150.7 39.1L153.6 13.5L132.3 28.1L134.9 29.7L140 26.2L148.9 31.5L148.2 37.7L150.7 39.1ZM150.4 18.8L149.1 28.7L142.2 24.6L150.4 18.8ZM122.5 13.1L134.8 5.8L131.2 4.89999L119.6 12L122 2.5L119.3 1.8L113.8 23.6L116.5 24.3L118.8 15.2L120.2 14.4L125.9 26.6L129.6 27.5L122.5 13.1ZM105.6 23.2L108.6 23.1L97.1 0L87.1 23.8L90.1 23.7L92.5 18L102.8 17.7L105.6 23.2ZM101.6 15.1L93.6 15.3L97.3 6.10001L101.6 15.1ZM79.8 15.2L79.5 14.4L71.1 17.5L72 19.9L77.5 17.9C78.7 21.4 76.2 25.5 72.9 26.7C68.3 28.4 63.1 25.6 61.5 21.1C59.7 16.4 62 11.2 66.7 9.39999C69.3 8.39999 72.3 8.89999 74.6 10.4L75.8 8C72.8 6.2 69 5.90001 65.7 7.10001C59.6 9.40001 56.6 16.1 58.9 22.2C61.1 28 67.7 31.4 73.6 29.2C79.5 26.9 81.9 21 79.8 15.2ZM48 31.8C50.4 29.5 50.5 26.1 48.5 23.5C47.2 21.8 45.1 20.7 42.9 21C40.9 21.3 39.1 22.5 37.5 23.8L34.8 25.8L48.4 43.7L50.6 42L44.9 34.4L45.8 33.7L56.8 37.3L59.5 35.2L48 31.8ZM44.2 32.1L43.5 32.6L38.6 26.1L39.2 25.6C41.4 23.9 44.4 22.3 46.5 25.1C48.7 28.1 46.5 30.4 44.2 32.1ZM27.3 47.3L22.4 43.3L28.3 36.1L26.3 34.5L18.7 43.9L36.1 58.1L43.7 48.7L41.7 47.1L35.8 54.3L29.2 48.9L34.9 41.9L32.9 40.3L27.3 47.3ZM20 62.5C20 60.8 18.7 59.2 17.2 58.5C12.6 56.3 9.90001 59.5 8.10001 63.3L6.89999 65.8L27.2 75.5L29.5 70.8C31.2 67.2 31.2 63 27.2 61C24.7 59.8 21.6 60.3 20 62.5ZM17.4 66.8L17.1 67.4L10.4 64.2L10.7 63.5C11.8 61.1 13.2 59.4 16.1 60.8C19 62.2 18.5 64.4 17.4 66.8ZM19.8 66.9C20.9 64.6 22.9 62 25.7 63.4C28.6 64.8 28.1 67.6 27 69.9L26.1 71.8L19.1 68.5L19.8 66.9ZM14.6 93.6L0.399994 93.3L0.300003 96.1L13.6 96.4C17.3 96.5 20.6 97.6 20.6 102C20.5 106.3 17.1 107.4 13.4 107.3L0.100006 107L0 109.8L14.2 110.1C19.2 110.2 23 107.2 23.1 102C23.3 96.9 19.5 93.7 14.6 93.6ZM4 119.9L1.5 120.5L4.60001 133.6L7.10001 133L5.89999 127.8L25.3 123.2L24.7 120.5L5.3 125.1L4 119.9ZM43.8 157.3L28.8 174L30.9 175.9L38.3 167.7L44.1 172.9L45.8 171L40 165.8L44.2 161.1L50.2 166.5L51.9 164.6L43.8 157.3ZM55.8 168L44.7 187.6L47.1 189L51.8 180.7L52.8 181.3L53.9 192.8L56.9 194.5L55.6 182.5C58.6 183.8 61.8 182.5 63.4 179.7C64.5 177.8 64.6 175.5 63.5 173.6C62.4 171.8 60.6 170.7 58.9 169.8L55.8 168ZM53 178.7L57 171.6L57.6 172C60 173.4 62.7 175.5 60.9 178.5C59.1 181.6 56.2 180.5 53.7 179.1L53 178.7ZM71.5 176.7L64.9 198.2L76.5 201.7L77.2 199.2L68.3 196.5L70.8 188.4L79.4 191L80.1 188.5L71.5 185.9L73.3 179.9L82.2 182.6L82.9 180.1L71.5 176.7ZM89.1 181.5L86.4 203.8L89.2 204.1L91.9 181.8L89.1 181.5ZM101.7 182.7L99 182.8L99.8 205.3L105 205.1C109 205 112.7 203 112.6 198.5C112.5 195.9 110.6 193.3 107.9 193V192.9C109.4 192.1 110.2 190.2 110.2 188.5C110 183.5 105.9 182.6 101.7 182.7ZM102.2 194.9L103.9 194.8C106.4 194.7 109.7 195.2 109.8 198.4C109.9 201.6 107.2 202.5 104.6 202.6L102.5 202.7L102.2 194.9ZM101.9 185.2H102.7C105.3 185.1 107.5 185.6 107.6 188.7C107.7 191.9 105.6 192.5 102.9 192.6H102.2L101.9 185.2ZM128.1 178.3L116.5 181.7L122.8 203.3L134.4 199.9L133.7 197.4L124.8 200L122.4 191.8L131.1 189.3L130.4 186.8L121.7 189.3L119.9 183.3L128.8 180.7L128.1 178.3ZM133.1 176.7L143.9 196.4L146.4 195L141.8 186.7L142.8 186.1L153.2 191.2L156.2 189.6L145.3 184.4C148 182.5 148.6 179.1 147 176.3C146 174.4 144 173.1 141.8 173C139.7 173 137.8 174 136.1 174.9L133.1 176.7ZM136.8 177.6L137.5 177.2C139.9 175.9 143.1 174.7 144.8 177.8C146.5 180.9 144.1 182.9 141.6 184.3L140.8 184.7L136.8 177.6ZM155.1 177.7C159.3 182.3 166.7 182.9 171.4 178.6C176 174.3 176 167.9 171.9 163.4L171.3 162.7L164.7 168.7L166.4 170.6L170.7 166.7C173.1 169.5 172.4 174.3 169.8 176.6C166.2 179.9 160.3 179.2 157.1 175.7C153.7 172 153.8 166.3 157.6 162.9C159.6 161 162.6 160.3 165.3 160.8L165.5 158.1C162 157.5 158.4 158.7 155.8 161.1C151 165.5 150.7 172.9 155.1 177.7ZM181.1 115.6L178.1 127.3L180.6 127.9L182.9 118.9L191.1 121L188.9 129.7L191.4 130.3L193.6 121.6L199.7 123.1L197.4 132.1L199.9 132.7L202.9 121L181.1 115.6ZM181.6 108.1L204 109.7L204.2 106.9L181.8 105.3L181.6 108.1ZM19.8 150C19.8 151.5 21.1 152.8 22.6 152.8C24.1 152.8 25.4 151.5 25.4 150C25.4 148.5 24.1 147.2 22.6 147.2C21.1 147.2 19.8 148.4 19.8 150ZM178.9 150C178.9 151.5 180.2 152.8 181.7 152.8C183.2 152.8 184.5 151.5 184.5 150C184.5 148.5 183.2 147.2 181.7 147.2C180.2 147.2 178.9 148.4 178.9 150Z" fill="#0069B4"/>
<path d="M276.8 38.7999V102.6H258.5V38.7999H241.3V23.3999H294V38.7999H276.8Z" fill="#0069B4"/>
<path d="M370.6 70.2999C370.6 77.8999 369.6 87.2999 361.8 95.3999C354.2 103.2 345.4 104.4 337.1 104.4C328.8 104.4 320 103.2 312.4 95.3999C304.6 87.2999 303.6 77.8999 303.6 70.2999V23.3999H321.9V69.7999C321.9 73.1999 322.1 79.0999 326.1 83.0999C329.3 86.4999 333.7 87.2999 337.1 87.2999C340.5 87.2999 344.9 86.5999 348.1 83.0999C352 79.0999 352.3 73.1999 352.3 69.7999V23.3999H370.6V70.2999Z" fill="#0069B4"/>
<path d="M439.8 65.5998C436.9 62.6998 432.7 60.7998 428.9 60.2998C430.8 59.4998 433.5 57.7998 435.6 54.4998C437.7 51.0998 438.2 47.4998 438.2 44.3998C438.2 40.9998 437.6 34.2998 432.5 29.3998C426.3 23.5998 416.6 23.2998 412.3 23.2998H388.1V102.5H417.9C422.8 102.5 432.3 102 438.8 95.6998C441.9 92.5998 445 87.5998 445 79.6998C444.9 72.7998 442.4 68.2998 439.8 65.5998ZM406 37.5998H408.8C412.1 37.5998 415.7 37.5998 418.3 39.5998C419.7 40.6998 421.4 42.7998 421.4 46.2998C421.4 49.6998 419.9 52.0998 418.2 53.2998C415.6 55.1998 411.4 55.5998 408.9 55.5998H405.9V37.5998H406ZM424 85.0998C420.7 88.1998 415.1 88.2998 410.5 88.2998H406.1V69.0998H411.1C414.8 69.0998 421 69.0998 424.2 72.0998C425.4 73.1998 426.7 75.2998 426.7 78.4998C426.6 81.2998 425.6 83.5998 424 85.0998Z" fill="#0069B4"/>
<path d="M498.8 23.3999H482.1L450.1 102.6H469.1L475.2 87.5999H505.1L511 102.6H530L498.8 23.3999ZM480.5 73.5999L490.4 46.9999L500.1 73.5999H480.5Z" fill="#0069B4"/>
<path d="M582.9 38.7998H557.2V54.0998H581V69.4998H557.2V102.5H538.9V23.2998H582.9V38.7998Z" fill="#0069B4"/>
<path d="M257.4 129.2H261.7C263.8 129.2 266.8 129.4 269.4 131.6C271.3 133.2 273 135.9 273 139.6C273 144 270.8 146.3 269.3 147.6C267.4 149.2 265.4 150 261.7 150H257.5V129.2H257.4ZM259.7 147.9H261.7C263.4 147.9 265.6 147.7 267.7 146C269.3 144.7 270.5 142.6 270.5 139.6C270.5 134.6 267 131.3 261.7 131.3H259.7V147.9Z" fill="#0069B4"/>
<path d="M277.8 130.6C278.7 130.6 279.4 131.3 279.4 132.2C279.4 133.1 278.7 133.8 277.8 133.8C276.9 133.8 276.2 133.1 276.2 132.2C276.2 131.3 276.9 130.6 277.8 130.6ZM278.9 137.1V150.1H276.6V137.1H278.9Z" fill="#0069B4"/>
<path d="M294.7 146.8C294.3 147.5 293.8 148.3 293.1 148.9C291.9 150 290.4 150.5 288.8 150.5C285.7 150.5 282.4 148.5 282.4 143.7C282.4 139.8 284.8 136.8 288.7 136.8C291.2 136.8 292.8 138.1 293.6 139.2C294.4 140.4 294.9 142.4 294.8 144.1H284.7C284.7 146.8 286.6 148.5 288.8 148.5C289.9 148.5 290.7 148.2 291.5 147.6C292.1 147.1 292.6 146.4 292.8 145.8L294.7 146.8ZM292.5 142.2C292.1 140.2 290.6 138.8 288.7 138.8C286.8 138.8 285.2 140.2 284.9 142.2H292.5Z" fill="#0069B4"/>
<path d="M309.4 129.2C310.8 129.2 312.9 129.3 314.5 130.4C315.7 131.2 316.8 132.8 316.8 135C316.8 138.2 314.7 140.5 311.5 140.8L318.1 150.1H315.3L308.9 141H308.3V150.1H306V129.2H309.4ZM308.4 138.9H309.9C312.8 138.9 314.5 137.5 314.5 135.1C314.5 133.9 314.2 132.8 312.8 132C311.9 131.5 310.8 131.4 309.8 131.4H308.4V138.9Z" fill="#0069B4"/>
<path d="M332.2 146.8C331.8 147.5 331.3 148.3 330.6 148.9C329.4 150 327.9 150.5 326.3 150.5C323.2 150.5 319.9 148.5 319.9 143.7C319.9 139.8 322.3 136.8 326.2 136.8C328.7 136.8 330.3 138.1 331.1 139.2C331.9 140.4 332.4 142.4 332.3 144.1H322.2C322.2 146.8 324.1 148.5 326.3 148.5C327.4 148.5 328.2 148.2 329 147.6C329.6 147.1 330.1 146.4 330.3 145.8L332.2 146.8ZM329.9 142.2C329.5 140.2 328 138.8 326.1 138.8C324.2 138.8 322.6 140.2 322.3 142.2H329.9Z" fill="#0069B4"/>
<path d="M341 140.1C340.7 139.3 340 138.8 339.2 138.8C338.4 138.8 337.6 139.3 337.6 140.3C337.6 141.2 338.2 141.5 339.7 142.1C341.6 142.9 342.5 143.5 343 144.1C343.6 144.8 343.7 145.5 343.7 146.2C343.7 148.9 341.7 150.5 339.2 150.5C338.7 150.5 335.8 150.4 334.7 147.2L336.6 146.4C336.9 147.1 337.6 148.5 339.2 148.5C340.7 148.5 341.3 147.4 341.3 146.4C341.3 145.2 340.4 144.8 339.2 144.2C337.6 143.5 336.6 143 336 142.3C335.5 141.7 335.4 141 335.4 140.4C335.4 138.1 337 136.8 339.2 136.8C339.9 136.8 341.7 136.9 342.8 139.1L341 140.1Z" fill="#0069B4"/>
<path d="M352.1 140.1C351.8 139.3 351.1 138.8 350.3 138.8C349.5 138.8 348.7 139.3 348.7 140.3C348.7 141.2 349.3 141.5 350.8 142.1C352.7 142.9 353.6 143.5 354.1 144.1C354.7 144.8 354.8 145.5 354.8 146.2C354.8 148.9 352.8 150.5 350.3 150.5C349.8 150.5 346.9 150.4 345.8 147.2L347.7 146.4C348 147.1 348.7 148.5 350.3 148.5C351.8 148.5 352.4 147.4 352.4 146.4C352.4 145.2 351.5 144.8 350.3 144.2C348.7 143.5 347.7 143 347.1 142.3C346.6 141.7 346.5 141 346.5 140.4C346.5 138.1 348.1 136.8 350.3 136.8C351 136.8 352.8 136.9 353.9 139.1L352.1 140.1Z" fill="#0069B4"/>
<path d="M356.9 143.6C356.9 139.7 359.8 136.7 363.8 136.7C367.8 136.7 370.7 139.6 370.7 143.6C370.7 147.5 367.8 150.4 363.8 150.4C359.9 150.5 356.9 147.6 356.9 143.6ZM359.2 143.6C359.2 146.8 361.5 148.4 363.8 148.4C366.1 148.4 368.4 146.7 368.4 143.6C368.4 140.4 366.2 138.7 363.8 138.7C361.4 138.8 359.2 140.5 359.2 143.6Z" fill="#0069B4"/>
<path d="M376.4 144.7C376.4 145.6 376.4 146.7 377 147.5C377.3 147.9 378 148.5 379.3 148.5C380.6 148.5 381.2 147.9 381.6 147.5C382.2 146.7 382.2 145.6 382.2 144.7V137.1H384.5V144.9C384.5 146.5 384.3 147.7 383.3 148.8C382.1 150 380.6 150.4 379.3 150.4C378 150.4 376.5 150 375.3 148.8C374.3 147.7 374.1 146.5 374.1 144.9V137.1H376.4V144.7Z" fill="#0069B4"/>
<path d="M388.8 137.1H391.1V138.5C391.3 138.2 392.3 136.8 394 136.8C394.7 136.8 395.4 137.1 396 137.3L394.9 139.3C394.4 139 393.9 138.9 393.6 138.9C392.7 138.9 392.1 139.3 391.8 139.7C391.4 140.2 391 141.1 391 143.2V150.1H388.7V137.1H388.8Z" fill="#0069B4"/>
<path d="M407.5 140.7C406.3 139.2 404.6 138.8 403.4 138.8C401 138.8 398.8 140.5 398.8 143.7C398.8 146.9 401.1 148.5 403.4 148.5C404.7 148.5 406.4 147.9 407.6 146.5V149.2C406.2 150.2 404.7 150.5 403.5 150.5C399.5 150.5 396.5 147.6 396.5 143.7C396.5 139.7 399.4 136.8 403.5 136.8C405.6 136.8 406.9 137.6 407.5 138.1V140.7Z" fill="#0069B4"/>
<path d="M422.5 146.8C422.1 147.5 421.6 148.3 420.9 148.9C419.7 150 418.2 150.5 416.6 150.5C413.5 150.5 410.2 148.5 410.2 143.7C410.2 139.8 412.6 136.8 416.5 136.8C419 136.8 420.6 138.1 421.4 139.2C422.2 140.4 422.7 142.4 422.6 144.1H412.5C412.5 146.8 414.4 148.5 416.6 148.5C417.7 148.5 418.5 148.2 419.3 147.6C419.9 147.1 420.4 146.4 420.6 145.8L422.5 146.8ZM420.3 142.2C419.9 140.2 418.4 138.8 416.5 138.8C414.6 138.8 413 140.2 412.7 142.2H420.3Z" fill="#0069B4"/>
<path d="M426.1 137.1H428.4V138.6C428.8 138.1 430 136.8 432.1 136.8C433.6 136.8 435 137.4 435.8 138.6C436.5 139.6 436.6 140.6 436.6 142.1V150.2H434.3V142.2C434.3 141.4 434.2 140.5 433.7 139.8C433.3 139.2 432.6 138.9 431.6 138.9C430.8 138.9 430 139.1 429.3 139.9C428.4 140.9 428.4 142.5 428.4 143.4V150.2H426.1V137.1Z" fill="#0069B4"/>
<path d="M443.1 144.7C443.1 145.6 443.1 146.7 443.7 147.5C444 147.9 444.7 148.5 446 148.5C447.3 148.5 447.9 147.9 448.3 147.5C448.9 146.7 448.9 145.6 448.9 144.7V137.1H451.2V144.9C451.2 146.5 451 147.7 450 148.8C448.8 150 447.3 150.4 446 150.4C444.7 150.4 443.2 150 442 148.8C441 147.7 440.8 146.5 440.8 144.9V137.1H443.1V144.7Z" fill="#0069B4"/>
<path d="M455.4 137.1H457.7V138.6C458.1 138.1 459.3 136.8 461.4 136.8C462.9 136.8 464.3 137.4 465.1 138.6C465.8 139.6 465.9 140.6 465.9 142.1V150.2H463.6V142.2C463.6 141.4 463.5 140.5 463 139.8C462.6 139.2 461.9 138.9 460.9 138.9C460.1 138.9 459.3 139.1 458.6 139.9C457.7 140.9 457.7 142.5 457.7 143.4V150.2H455.4V137.1Z" fill="#0069B4"/>
<path d="M471.2 130.6C472.1 130.6 472.8 131.3 472.8 132.2C472.8 133.1 472.1 133.8 471.2 133.8C470.3 133.8 469.6 133.1 469.6 132.2C469.6 131.3 470.4 130.6 471.2 130.6ZM472.4 137.1V150.1H470.1V137.1H472.4Z" fill="#0069B4"/>
<path d="M477.3 137.1L481.2 145.9L485.1 137.1H487.6L481.2 150.9L474.8 137.1H477.3Z" fill="#0069B4"/>
<path d="M501.4 146.8C501 147.5 500.5 148.3 499.8 148.9C498.6 150 497.1 150.5 495.5 150.5C492.4 150.5 489.1 148.5 489.1 143.7C489.1 139.8 491.5 136.8 495.4 136.8C497.9 136.8 499.5 138.1 500.3 139.2C501.1 140.4 501.6 142.4 501.5 144.1H491.4C491.4 146.8 493.3 148.5 495.5 148.5C496.6 148.5 497.4 148.2 498.2 147.6C498.8 147.1 499.3 146.4 499.5 145.8L501.4 146.8ZM499.2 142.2C498.8 140.2 497.3 138.8 495.4 138.8C493.5 138.8 491.9 140.2 491.6 142.2H499.2Z" fill="#0069B4"/>
<path d="M505 137.1H507.3V138.5C507.5 138.2 508.5 136.8 510.2 136.8C510.9 136.8 511.6 137.1 512.2 137.3L511.1 139.3C510.6 139 510.1 138.9 509.8 138.9C508.9 138.9 508.3 139.3 508 139.7C507.6 140.2 507.2 141.1 507.2 143.2V150.1H504.9V137.1H505Z" fill="#0069B4"/>
<path d="M519.3 140.1C519 139.3 518.3 138.8 517.5 138.8C516.7 138.8 515.9 139.3 515.9 140.3C515.9 141.2 516.5 141.5 518 142.1C519.9 142.9 520.8 143.5 521.3 144.1C521.9 144.8 522 145.5 522 146.2C522 148.9 520 150.5 517.5 150.5C517 150.5 514.1 150.4 513 147.2L514.9 146.4C515.2 147.1 515.9 148.5 517.5 148.5C519 148.5 519.6 147.4 519.6 146.4C519.6 145.2 518.7 144.8 517.5 144.2C515.9 143.5 514.9 143 514.3 142.3C513.8 141.7 513.7 141 513.7 140.4C513.7 138.1 515.3 136.8 517.5 136.8C518.2 136.8 520 136.9 521.1 139.1L519.3 140.1Z" fill="#0069B4"/>
<path d="M526.1 130.6C527 130.6 527.7 131.3 527.7 132.2C527.7 133.1 527 133.8 526.1 133.8C525.2 133.8 524.5 133.1 524.5 132.2C524.5 131.3 525.2 130.6 526.1 130.6ZM527.2 137.1V150.1H524.9V137.1H527.2Z" fill="#0069B4"/>
<path d="M533.8 139.2V150.1H531.5V139.2H530.1V137.1H531.5V132.4H533.8V137.1H536.1V139.2H533.8Z" fill="#0069B4"/>
<path d="M548.1 137.1H550.4V150.1H548.1V148.3C547.3 149.3 545.9 150.5 543.7 150.5C540.4 150.5 537.4 148.2 537.4 143.6C537.4 139.1 540.4 136.8 543.7 136.8C546.2 136.8 547.6 138.2 548.1 139V137.1ZM539.7 143.6C539.7 146.4 541.3 148.5 544 148.5C546.8 148.5 548.3 146.2 548.3 143.6C548.3 140.2 546 138.8 544 138.8C541.7 138.8 539.7 140.4 539.7 143.6ZM541.7 131.3C542.5 131.3 543.3 132 543.3 132.9C543.3 133.7 542.6 134.5 541.7 134.5C540.9 134.5 540.1 133.8 540.1 132.9C540.1 132 540.8 131.3 541.7 131.3ZM547.1 131.3C547.9 131.3 548.7 132 548.7 132.9C548.7 133.7 548 134.5 547.1 134.5C546.3 134.5 545.5 133.8 545.5 132.9C545.6 132 546.3 131.3 547.1 131.3Z" fill="#0069B4"/>
<path d="M557 139.2V150.1H554.7V139.2H553.3V137.1H554.7V132.4H557V137.1H559.3V139.2H557Z" fill="#0069B4"/>
<path d="M562.8 147.3C563.6 147.3 564.4 148 564.4 148.9C564.4 149.7 563.7 150.5 562.8 150.5C562 150.5 561.2 149.8 561.2 148.9C561.2 148 561.9 147.3 562.8 147.3Z" fill="#0069B4"/>
<path d="M266.7 165.2C266.4 164.6 265.9 164 265.5 163.6C265.1 163.3 264.3 162.9 263.2 162.9C261.1 162.9 259.7 164.2 259.7 166.1C259.7 166.9 259.9 167.4 260.5 167.9C261.1 168.5 261.9 168.9 262.7 169.2L264.7 170.1C265.9 170.6 267 171.2 267.9 172.1C269 173.2 269.4 174.4 269.4 175.9C269.4 179.8 266.5 182.3 262.8 182.3C261.4 182.3 259.7 182 258.3 180.6C257.3 179.6 256.6 178.2 256.4 176.9L258.7 176.3C258.9 177.4 259.4 178.3 260 179C260.9 179.9 261.9 180.2 263 180.2C265.9 180.2 267.2 178.2 267.2 176.1C267.2 175.2 266.9 174.3 266.2 173.7C265.6 173.1 264.8 172.8 263.7 172.3L261.8 171.4C261 171 260 170.6 259 169.7C258.1 168.8 257.6 167.9 257.6 166.3C257.6 163.1 260.1 160.9 263.5 160.9C264.8 160.9 265.8 161.2 266.9 161.8C267.7 162.4 268.5 163.2 268.9 164.1L266.7 165.2Z" fill="#0069B4"/>
<path d="M284.6 178.6C284.2 179.3 283.7 180.1 283 180.7C281.8 181.8 280.3 182.3 278.7 182.3C275.6 182.3 272.3 180.3 272.3 175.5C272.3 171.6 274.7 168.6 278.6 168.6C281.1 168.6 282.7 169.9 283.5 171C284.3 172.2 284.8 174.2 284.7 175.9H274.6C274.6 178.6 276.5 180.3 278.7 180.3C279.8 180.3 280.6 180 281.4 179.4C282 178.9 282.5 178.2 282.7 177.6L284.6 178.6ZM282.4 174C282 172 280.5 170.6 278.6 170.6C276.7 170.6 275.1 172 274.8 174H282.4Z" fill="#0069B4"/>
<path d="M289.3 162.4C290.2 162.4 290.9 163.1 290.9 164C290.9 164.9 290.2 165.6 289.3 165.6C288.4 165.6 287.7 164.9 287.7 164C287.7 163.1 288.4 162.4 289.3 162.4ZM290.4 168.9V181.9H288.1V168.9H290.4Z" fill="#0069B4"/>
<path d="M297 171V181.9H294.7V171H293.3V168.9H294.7V164.2H297V168.9H299.3V171H297Z" fill="#0069B4"/>
<path d="M314.9 163.2H311.4L312.6 161H317.2V181.9H314.9V163.2Z" fill="#0069B4"/>
<path d="M334.3 163.2H322.9V161H338.2L324.2 182.4L322.4 181.2L334.3 163.2Z" fill="#0069B4"/>
<path d="M348.5 161.9L343.7 168.6C344.3 168.4 344.9 168.3 345.5 168.3C349.5 168.3 352.3 171.3 352.3 175.2C352.3 179.4 349.3 182.4 345.1 182.4C340.2 182.4 337.9 178.6 337.9 175.3C337.9 174.5 338.1 172.7 339.6 170.5L346.7 160.6L348.5 161.9ZM350 175.2C350 172.4 347.9 170.4 345.1 170.4C342.2 170.4 340.2 172.5 340.2 175.2C340.2 178 342.2 180.2 345.1 180.2C348 180.2 350 178 350 175.2Z" fill="#0069B4"/>
<path d="M369.1 163.2H362.4L361.1 167.7C361.5 167.6 361.9 167.6 362.4 167.6C366.6 167.6 369.3 170.8 369.3 174.8C369.3 179.5 365.8 182.3 361.7 182.3C360 182.3 358.4 181.8 357 180.7C356.3 180.1 355.7 179.4 355.2 178.6L357 177.3C357.3 178 357.8 178.5 358.4 179C359.3 179.7 360.3 180.3 361.8 180.3C364.7 180.3 366.9 177.9 366.9 174.9C366.9 171.9 364.7 169.8 361.8 169.8C361 169.8 359.6 169.9 357.8 171.2L360.8 161.1H369.1V163.2Z" fill="#0069B4"/>
<path d="M374.8 179.1C375.6 179.1 376.4 179.8 376.4 180.7C376.4 181.5 375.7 182.3 374.8 182.3C374 182.3 373.2 181.6 373.2 180.7C373.2 179.8 373.9 179.1 374.8 179.1Z" fill="#0069B4"/>
<path d="M107.7 102.6L130.3 79.1998L135.9 84.7998L159 96.2998L147.5 73.2998L141.7 67.4998L143.3 65.7998L137.9 60.3998L136.2 61.9998L122.7 48.4998L111.1 59.9998L124.4 73.2998L103.2 93.7998V64.2998H103.7C105.9 64.2998 107.6 62.4998 107.6 60.3998L107.2 49.3998H102.8L103.2 59.1998C103.2 59.5998 102.9 59.8998 102.5 59.8998H99.3999C98.9999 59.8998 98.6999 59.5998 98.6999 59.1998L99.0999 49.3998H94.6999L94.2999 60.3998C94.2999 62.5998 96.0999 64.2998 98.1999 64.2998H98.6999V93.7998L75.5999 71.4998C80.4999 67.0998 86.0999 63.3998 92.0999 60.4998L80.9999 47.7998C66.1999 55.8998 53.9999 68.0998 45.8999 82.8998L58.5999 93.9998C61.4999 87.8998 65.1999 82.3998 69.5999 77.3998L93.9999 102.7L57.0999 138.3C56.1999 139.2 56.0999 140.6 56.9999 141.5C58.5999 143.3 60.2999 145 62.0999 146.6C62.9999 147.4 64.4999 147.4 65.2999 146.5L97.0999 113.5L96.6999 116.5V117.4L96.4999 123.2V123.5V124.4L96.3999 127.9L96.2999 131.5L96.1999 131.8V132.7L95.4999 155.2C95.4999 155.2 95.4999 155.2 95.4999 155.3V155.4C95.4999 156 95.6999 156.5 96.0999 156.9C96.4999 157.3 96.9999 157.5 97.5999 157.5H97.6999H103.8H103.9H104C104.6 157.5 105.1 157.3 105.5 156.9C105.9 156.5 106.1 156 106.1 155.4L105.4 132.5V131.7V131.6L105.1 123.8V123.3V123.2L104.9 117.3V116.3L104.8 115.7L104.5 113.4L136.3 146.3C137.2 147.2 138.6 147.3 139.5 146.4C141.3 144.8 143 143.1 144.6 141.3C145.4 140.4 145.4 138.9 144.5 138.1L107.7 102.6ZM98.0999 62.5998C96.8999 62.5998 95.7999 61.5998 95.7999 60.3998L96.1999 50.9998H97.2999L96.9999 59.0998C96.9999 60.3998 98.0999 61.4998 99.3999 61.4998H102.5C103.8 61.4998 104.9 60.3998 104.9 59.0998L104.6 50.9998H105.7L106.1 60.2998C106.1 61.4998 105.1 62.5998 103.8 62.5998H101.7V95.3998L101 95.9998L100.4 95.3998V62.5998H98.0999ZM103.3 116.7L103.7 127.9L104 138.5V138.6L104.5 155.2C104.5 155.4 104.4 155.5 104.3 155.6C104.2 155.7 104 155.8 103.9 155.8H97.7999C97.5999 155.8 97.4999 155.7 97.3999 155.6C97.2999 155.5 97.1999 155.3 97.1999 155.2L97.6999 139.3C97.6999 139.2 97.6999 139.2 97.6999 139.1L97.8999 132.2V131.8V131.7L97.9999 127.7L98.0999 123.8V123.6V123.4V123.3L98.2999 116.5C98.2999 116.5 98.5999 114.1 98.9999 111.3L100.8 109.5L102.6 111.4C103 114.3 103.3 116.7 103.3 116.7ZM143.2 140.7L138.9 145C138.3 145.6 137.4 145.6 136.8 145L130.2 137.9L121.4 128.5L120.3 127.3L112.5 119L111.9 118.4L104.3 107.9C104.3 107.8 104.2 107.8 104.2 107.7L100.9 104.4L97.5999 107.7C97.5999 107.7 97.4999 107.8 97.4999 107.9L89.8999 118.4L89.2999 119L80.3999 128.5L71.5999 137.9L64.9999 145C64.3999 145.6 63.4999 145.6 62.8999 145L58.5999 140.7C57.9999 140.1 57.9999 139.2 58.5999 138.6L74.9999 123.2L75.3999 122.9L84.5999 114.3L85.1999 113.7L95.6999 106.1C95.7999 106.1 95.7999 106 95.8999 106L99.1999 102.7L94.4999 97.9998L86.1999 89.6998L67.8999 71.3998L63.6999 75.5998L61.8999 73.7998L67.8999 67.7998L69.6999 69.5998L86.1999 86.0998L101 100.9L114.8 87.0998L127.8 74.0998L126.8 73.0998C125.7 71.9998 125.7 70.2998 126.8 69.1998L131.9 64.8998C133 63.8998 134.6 63.8998 135.7 64.9998L138.5 67.7998C139.5 68.7998 139.6 70.4998 138.6 71.5998L134.3 76.6998C133.2 77.7998 131.5 77.7998 130.4 76.6998L129.7 75.9998L117 88.6998L102.9 102.8L106.2 106.1C106.2 106.1 106.3 106.2 106.4 106.2L116.9 113.8L117.5 114.4L126.7 123.1L127 123.3L143.4 138.7C143.8 139.2 143.8 140.1 143.2 140.7Z" fill="#0069B4"/>
<path d="M131.2 74.0996C131.7 74.5996 132.6 74.5996 133.1 74.0996L136.8 70.1996C137.3 69.6996 137.3 68.2996 136.8 67.7996L135.6 66.5996C135.1 66.0996 133.7 66.0996 133.2 66.5996L129.3 70.2996C128.8 70.7996 128.8 71.6996 129.3 72.1996L131.2 74.0996Z" fill="#0069B4"/>
</svg>