<svg xmlns="http://www.w3.org/2000/svg" viewBox="0 0 32 14"><defs/><path fill="#fff200" d="M20.18.15l-.57 1.78-1.72.04 1.37 1.14-.5 1.81 1.42-1.08 1.41 1.08-.5-1.8 1.38-1.15-1.73-.04-.56-1.78M29 10.77l-1.72.04 1.37 1.14-.5 1.8 1.42-1.07 1.41 1.08-.5-1.81 1.38-1.14-1.72-.04-.57-1.79-.57 1.79M25.9 3.73l.57 1.79 1.72.03-1.37 1.15.5 1.8-1.42-1.07L24.5 8.5l.5-1.8-1.38-1.15 1.73-.03.56-1.79"/><path fill="#254aa5" d="M2.18 2.53L.84 4.43h1.13l-.09.4H.16l.04-.28 1.36-1.88v-.01h-1l.06-.4h1.6l-.04.27M3.64 4.83h-.41l.04-.23h-.01c-.08.1-.22.28-.55.28-.28 0-.42-.19-.42-.53 0-.1.02-.25.04-.38l.14-.95h.45l-.15.95-.03.28c0 .16.07.24.2.24.14 0 .26-.1.33-.16l.2-1.3h.44l-.27 1.8M5.17 3.46a.59.59 0 00-.34-.11c-.14 0-.2.06-.2.14 0 .09.05.15.18.24l.08.06c.2.14.32.3.32.53 0 .31-.23.56-.65.56a.8.8 0 01-.53-.18l.15-.38c.05.05.2.17.37.17.14 0 .23-.04.23-.13 0-.1-.06-.16-.2-.27l-.08-.06c-.18-.15-.29-.28-.29-.51 0-.34.28-.54.65-.54.24 0 .38.09.44.12l-.13.36M6.2 4.49c.17 0 .27-.1.32-.15l.15-.93a.34.34 0 00-.2-.06c-.27 0-.5.24-.5.79 0 .23.09.35.24.35zm.7.34h-.42l.04-.21H6.5a.56.56 0 01-.48.26c-.29 0-.51-.22-.51-.75 0-.74.45-1.15.93-1.15.23 0 .34.1.4.14l.1-.1h.22l-.28 1.81M9.9 3.88l-.15.95H9.3l.15-.95.02-.27c0-.16-.06-.24-.18-.24a.5.5 0 00-.33.15c0 .12-.03.26-.04.36l-.15.95h-.44l.14-.95a2 2 0 00.03-.27c0-.16-.06-.24-.18-.24a.48.48 0 00-.33.15l-.2 1.31h-.44l.28-1.8h.4L8 3.25c.1-.1.26-.28.54-.28.2 0 .32.09.38.26.1-.1.29-.26.58-.26.28 0 .43.19.43.53 0 .12-.02.26-.04.37M12.73 3.88l-.15.95h-.44l.14-.95c.02-.08.03-.2.03-.27 0-.16-.06-.24-.18-.24a.5.5 0 00-.34.15c0 .12-.02.26-.04.36l-.14.95h-.45l.15-.95a2 2 0 00.03-.27c0-.16-.06-.24-.18-.24a.48.48 0 00-.33.15l-.2 1.31h-.44l.27-1.8h.4l-.03.23h.01c.09-.1.25-.28.54-.28.19 0 .32.09.38.26.1-.1.28-.26.57-.26.28 0 .44.19.44.53 0 .12-.03.26-.04.37M13.54 3.75h.06c.33 0 .44-.11.44-.28 0-.1-.06-.15-.14-.15-.15 0-.3.15-.36.43zm.1.3h-.14v.06c0 .27.11.38.31.38.22 0 .35-.1.4-.15l.1.33c-.07.06-.23.2-.57.2-.41 0-.67-.22-.67-.75 0-.75.45-1.14.92-1.14.27 0 .44.15.44.44 0 .43-.33.64-.79.64M16.22 3.88l-.15.95h-.45l.15-.95.03-.27c0-.17-.06-.24-.2-.24-.15 0-.27.1-.34.15l-.2 1.31h-.44l.27-1.8h.4l-.03.23c.1-.1.27-.28.57-.28.27 0 .42.18.42.52 0 .09 0 .21-.03.38M16.75 4.88c-.17 0-.27-.11-.27-.28 0-.18.1-.29.27-.29.16 0 .26.11.26.29 0 .17-.1.28-.26.28M2.18 7L.84 8.88h1.13l-.09.4H.16l.04-.27 1.36-1.9h-1l.06-.4h1.6L2.18 7M3.64 9.3h-.41l.04-.24h-.01c-.08.1-.22.28-.55.28-.28 0-.42-.19-.42-.53 0-.1.02-.24.04-.38l.14-.95h.45l-.15.95-.03.28c0 .16.07.24.2.24.14 0 .26-.09.33-.16l.2-1.3h.44l-.27 1.8M5.64 7.48l.02.18c0 .42-.19.67-.46.8l.37.84h-.49l-.28-.76H4.65l-.11.76h-.45l.4-2.63.45-.04L4.7 8.2h.04c.32 0 .48-.15.48-.52 0-.08 0-.14-.02-.19h.44M7.27 9.3h-.4l.03-.24c-.1.1-.23.28-.55.28-.28 0-.43-.19-.43-.53 0-.1.02-.24.04-.38l.15-.95h.44l-.14.95-.03.28c0 .16.06.24.18.24.15 0 .27-.09.34-.16l.2-1.3h.44l-.27 1.8M9.32 8.35l-.14.95h-.45l.15-.95.03-.28c0-.17-.06-.24-.2-.24-.15 0-.27.1-.34.16l-.2 1.3h-.44L8 7.5h.4l-.03.23c.1-.1.27-.28.57-.28.27 0 .42.18.42.52 0 .09 0 .22-.04.39M10.9 7.03c-.02-.01-.08-.04-.15-.04-.16 0-.26.08-.3.32l-.02.17h.4l-.07.37h-.39l-.2 1.36c-.1.62-.37.85-.87.87l-.06-.38c.3-.03.43-.14.48-.51l.2-1.34H9.7l.05-.32.23-.04.03-.17c.07-.47.32-.71.72-.71.14 0 .24.05.27.06l-.1.36M12 7.85h-.4l-.1.63-.02.28c0 .14.06.19.16.19.09 0 .14-.03.17-.04l.03.34c-.05.03-.15.08-.35.08-.3 0-.47-.15-.47-.5l.04-.35.1-.63h-.23l.05-.32.23-.04.13-.5h.4l-.08.5h.4l-.06.36M12.36 9.34c-.17 0-.27-.1-.27-.28 0-.18.1-.29.27-.29.16 0 .26.11.26.29 0 .17-.1.28-.26.28M2.27 11.71c-.06-.05-.2-.15-.48-.15-.5 0-.9.37-.9 1.16 0 .44.2.67.56.67.1 0 .18-.01.24-.03l.1-.58h-.4l.05-.4h.85l-.18 1.17c-.07.07-.31.25-.76.25-.54 0-.96-.3-.96-1.05 0-1.1.69-1.6 1.43-1.6.34 0 .53.12.6.17l-.15.4M3.03 12.68h.06c.34 0 .44-.12.44-.28 0-.1-.06-.15-.14-.15-.15 0-.29.15-.36.43zm.1.3H3v.06c0 .26.1.38.3.38.22 0 .36-.1.4-.15l.1.33c-.06.06-.22.2-.57.2-.4 0-.67-.23-.67-.76 0-.74.46-1.14.92-1.14.27 0 .45.15.45.45 0 .43-.33.63-.8.63M5.2 12.39a.59.59 0 00-.35-.12c-.14 0-.2.06-.2.15 0 .08.05.14.18.23l.08.07c.19.13.31.29.31.52 0 .32-.23.56-.64.56a.8.8 0 01-.53-.18l.15-.37c.05.05.19.17.37.17.14 0 .22-.05.22-.14 0-.09-.05-.15-.19-.26l-.08-.07c-.18-.15-.29-.28-.29-.5 0-.34.28-.55.65-.55.24 0 .38.1.43.13l-.12.36M6.64 12.31h-.4l-.1.63-.03.28c0 .14.06.2.16.2s.15-.03.18-.05l.03.34c-.05.03-.16.09-.35.09-.3 0-.47-.15-.47-.5 0-.1.02-.22.04-.36l.1-.63h-.24l.06-.32.23-.04.13-.5h.4l-.08.5h.4l-.06.36M7.49 13.41c.17 0 .27-.1.32-.14l.14-.94a.34.34 0 00-.2-.06c-.27 0-.5.25-.5.8 0 .23.1.34.24.34zm.69.35h-.41l.03-.22a.56.56 0 01-.48.26c-.3 0-.52-.21-.52-.75 0-.74.45-1.15.94-1.15.23 0 .34.1.39.15l.1-.1h.22l-.27 1.8M9.4 13.72a.59.59 0 01-.3.07c-.25 0-.4-.1-.4-.42a4 4 0 01.05-.46l.27-1.77.45-.05-.27 1.82c-.04.23-.05.34-.05.39 0 .1.03.13.1.13s.11-.02.14-.03v.32M10.78 12.31h-.4l-.1.63-.02.28c0 .14.06.2.16.2.09 0 .14-.03.17-.05l.03.34c-.05.03-.15.09-.35.09-.3 0-.47-.15-.47-.5 0-.1.02-.22.04-.36l.1-.63H9.7l.05-.32.23-.04.13-.5h.4l-.08.5h.4l-.06.36M11.42 12.68h.06c.33 0 .43-.12.43-.28 0-.1-.06-.15-.13-.15-.16 0-.3.15-.36.43zm.1.3h-.14v.06c0 .26.11.38.31.38.21 0 .35-.1.4-.15l.09.33c-.06.06-.22.2-.56.2-.42 0-.68-.23-.68-.76 0-.74.46-1.14.92-1.14.27 0 .45.15.45.45 0 .43-.33.63-.8.63M14.1 12.8l-.15.96h-.45l.15-.95.02-.28c0-.16-.05-.24-.19-.24-.15 0-.27.1-.34.16l-.2 1.3h-.45l.28-1.8h.4l-.03.23c.09-.1.27-.28.57-.28.27 0 .42.18.42.53 0 .08-.01.2-.04.38M14.62 13.8c-.16 0-.26-.1-.26-.28 0-.17.1-.28.26-.28s.27.1.27.28c0 .17-.1.28-.27.28"/></svg>