<svg xmlns="http://www.w3.org/2000/svg" viewBox="0 0 29 32"><defs/><path fill="#231f20" d="M.24 25.93V22h2.5v.47H.77v1.07H2.6v.47H.77v1.46h1.97v.46H.24M5.63 25.93h-.5v-.32c-.16.13-.3.23-.45.3-.14.07-.3.1-.47.1-.13 0-.25-.02-.37-.06a.77.77 0 01-.3-.2.95.95 0 01-.2-.34c-.05-.14-.07-.31-.07-.51v-1.91h.5v1.67c0 .16 0 .29.02.4.01.1.04.19.08.26.04.08.1.13.17.17a.7.7 0 00.3.05.9.9 0 00.4-.1c.14-.07.27-.15.38-.25v-2.2h.51v2.94M7.96 23.52h-.03a2.25 2.25 0 00-.27-.02c-.14 0-.27.02-.4.08-.14.06-.27.15-.4.26v2.1h-.5v-2.95h.5v.43c.2-.16.35-.27.5-.33a.91.91 0 01.6-.09v.52M10.27 24.46c0-.38-.07-.66-.2-.85a.72.72 0 00-.61-.28c-.27 0-.47.1-.61.28-.15.19-.22.47-.22.85 0 .37.07.65.22.84.14.2.34.29.6.29.27 0 .47-.1.6-.28.15-.2.22-.47.22-.85zm.53 0c0 .5-.13.88-.37 1.15-.24.27-.57.4-.97.4-.42 0-.75-.13-1-.41a1.68 1.68 0 01-.35-1.14c0-.5.12-.87.37-1.15.25-.27.57-.4.98-.4.4 0 .73.13.97.4s.37.66.37 1.15M13.32 24.44c0-.34-.06-.6-.17-.79-.1-.18-.29-.27-.53-.27a.96.96 0 00-.42.09c-.13.06-.26.14-.38.24v1.67l.34.13c.1.02.2.04.33.04.26 0 .46-.1.6-.29.15-.19.23-.46.23-.82zm.52-.06c0 .5-.12.88-.36 1.17-.24.3-.54.44-.91.44a1.41 1.41 0 01-.75-.2v1.23h-.5v-4.03h.5v.3c.13-.1.27-.2.42-.27.15-.08.32-.12.5-.12.35 0 .61.14.8.4.2.27.3.63.3 1.08M16.24 22.5h-.54v-.52h.54zm-.2 2.7v-.81l-.45.04c-.19.02-.34.05-.45.08a.81.81 0 00-.33.19.46.46 0 00-.13.35c0 .17.04.3.14.38.1.09.24.13.43.13a.9.9 0 00.43-.1c.13-.07.25-.15.36-.25zm-.9-2.7h-.55v-.52h.54zm.9 3.12l-.16.13c-.07.05-.14.1-.2.12a1.5 1.5 0 01-.26.1c-.09.03-.2.04-.35.04a.91.91 0 01-.65-.26.99.99 0 01-.27-.68c0-.2.05-.37.13-.51a.9.9 0 01.42-.34c.17-.08.37-.13.6-.16l.74-.07v-.1a.62.62 0 00-.05-.27.39.39 0 00-.15-.17.6.6 0 00-.24-.08 2.07 2.07 0 00-1.17.18h-.03v-.5a4.37 4.37 0 01.92-.14c.2 0 .38.02.52.05a1 1 0 01.38.17c.11.08.2.19.25.32.05.13.08.28.08.47v2.01h-.5v-.31M17.77 25.93h-.5V23h.5zm.04-3.44h-.58v-.51h.58v.51M19.33 26c-.2 0-.39-.02-.56-.07-.18-.06-.32-.11-.44-.17v-.56h.03l.15.11.23.13.29.1a1.13 1.13 0 00.58.02c.09-.02.16-.04.2-.07.06-.04.1-.09.14-.13a.4.4 0 00.04-.2c0-.13-.03-.21-.1-.27a.8.8 0 00-.35-.16 8.42 8.42 0 00-.54-.12.93.93 0 01-.5-.3.8.8 0 01-.16-.5c0-.26.1-.48.31-.65.2-.16.48-.25.82-.25a2.21 2.21 0 01.93.22v.53h-.03a1.59 1.59 0 00-.91-.33.8.8 0 00-.43.1.34.34 0 00-.17.32c0 .12.03.21.1.27a.8.8 0 00.33.15 8.54 8.54 0 00.55.12c.22.06.39.15.5.28a.87.87 0 01.1.88.8.8 0 01-.24.29c-.1.08-.22.15-.36.2-.14.04-.3.06-.51.06M22.17 26c-.2 0-.4-.03-.57-.1a1.17 1.17 0 01-.73-.76 2 2 0 01-.1-.68c0-.26.03-.48.1-.67.08-.18.17-.34.29-.47.12-.13.27-.23.44-.3a1.68 1.68 0 011.05-.04c.15.05.29.1.41.16v.56h-.03a1.78 1.78 0 00-.6-.31.98.98 0 00-.27-.04c-.26 0-.47.1-.63.29-.16.2-.24.47-.24.82s.08.62.23.82c.16.2.37.29.64.29.17 0 .33-.03.48-.1.14-.07.28-.15.4-.26h.02v.56a7.22 7.22 0 01-.4.15 1.41 1.41 0 01-.5.08M25.88 25.93h-.5v-1.68c0-.13 0-.26-.02-.37a.8.8 0 00-.08-.29.4.4 0 00-.17-.16.7.7 0 00-.3-.05.87.87 0 00-.4.1c-.13.06-.26.15-.38.25v2.2h-.51v-4.1h.5v1.48a2 2 0 01.45-.3c.15-.07.3-.1.47-.1.3 0 .53.09.7.28.16.2.24.47.24.83v1.91M28.5 24.13c-.01-.13-.03-.25-.06-.34a.71.71 0 00-.12-.25.57.57 0 00-.23-.17.9.9 0 00-.34-.06.88.88 0 00-.34.06.82.82 0 00-.43.43c-.04.1-.07.2-.08.33zM27.9 26a1.5 1.5 0 01-1.12-.4c-.26-.26-.4-.64-.4-1.12 0-.48.14-.87.4-1.15.25-.28.58-.43 1-.43.19 0 .35.03.5.08a1 1 0 01.37.25c.1.11.2.25.25.41.06.17.08.37.08.6v.27H26.9c0 .34.09.6.26.79.18.18.42.27.73.27a1.44 1.44 0 00.62-.13 1.95 1.95 0 00.39-.23h.03v.54l-.22.09a2.42 2.42 0 01-.81.16M1.64 31.98c-.24 0-.44-.03-.62-.1a1.14 1.14 0 01-.75-.76 2.5 2.5 0 01-.08-.7v-2.45h.53v2.45c0 .18.01.33.04.46.02.12.06.23.13.33s.17.19.3.24c.12.05.27.08.45.08.16 0 .31-.03.44-.08a.67.67 0 00.3-.24c.07-.1.11-.21.14-.33.02-.12.03-.27.03-.45v-2.46h.54v2.45c0 .27-.03.5-.09.7-.05.2-.15.36-.3.5-.12.12-.27.2-.44.27a1.9 1.9 0 01-.62.09M6.17 31.9h-.5v-1.68c0-.14 0-.26-.02-.38a.79.79 0 00-.08-.28.4.4 0 00-.17-.17.7.7 0 00-.3-.05.88.88 0 00-.4.1c-.13.06-.26.15-.38.26v2.2H3.8v-2.95h.5v.33a2 2 0 01.45-.3c.15-.08.3-.11.47-.11.3 0 .53.1.7.28.16.2.24.47.24.83v1.92M7.4 31.9h-.5v-2.95h.5zm.04-3.45h-.58v-.5h.58v.5M10.1 30.42c0-.38-.07-.66-.22-.85a.71.71 0 00-.6-.28c-.27 0-.47.1-.61.28-.14.19-.22.47-.22.85 0 .37.08.65.22.84.14.2.34.29.6.29.27 0 .47-.1.61-.28.14-.19.22-.47.22-.85zm.52 0c0 .5-.12.88-.37 1.15-.24.27-.57.4-.97.4-.42 0-.75-.13-.99-.41a1.68 1.68 0 01-.36-1.14c0-.49.13-.87.37-1.14.25-.28.57-.41.98-.41.4 0 .73.13.97.4.25.28.37.66.37 1.15M13.5 31.9H13v-1.68l-.02-.38a.79.79 0 00-.08-.28.4.4 0 00-.17-.17.7.7 0 00-.3-.05.88.88 0 00-.4.1c-.13.06-.26.15-.39.26v2.2h-.5v-2.95h.5v.33a2 2 0 01.45-.3c.15-.08.3-.11.47-.11.3 0 .52.1.7.28.16.2.24.47.24.83v1.92"/><path fill="#254aa5" d="M.15.1h28.8v19.02H.15V.1"/><path fill="#fff200" d="M8.96 5.18l.24.67.72.02-.57.43.2.68-.59-.4-.6.4.22-.68L8 5.87l.72-.02.24-.67"/><path fill="#fff200" d="M8.96 5.18l.24.67.72.02-.57.43.2.68-.59-.4-.6.4.22-.68L8 5.87l.72-.02.24-.67M11.32 2.86l.23.67.73.02-.58.43.21.68-.6-.4-.59.4.21-.68-.57-.43.72-.02.24-.67"/><path fill="#fff200" d="M11.32 2.86l.23.67.73.02-.58.43.21.68-.6-.4-.59.4.21-.68-.57-.43.72-.02.24-.67M14.56 2.01l.24.68.73.01-.58.43.2.69-.59-.41-.6.4.22-.68-.58-.43.73-.01.23-.68"/><path fill="#fff200" d="M14.56 2.01l.24.68.73.01-.58.43.2.69-.59-.41-.6.4.22-.68-.58-.43.73-.01.23-.68M17.78 2.86l.24.67.72.02-.58.43.21.68-.6-.4-.59.4.21-.68-.57-.43.72-.02.24-.67"/><path fill="#fff200" d="M17.78 2.86l.24.67.72.02-.58.43.21.68-.6-.4-.59.4.21-.68-.57-.43.72-.02.24-.67M20.13 5.18l.24.67.73.02-.58.43.2.68-.59-.4-.59.4.2-.68-.57-.43.73-.02.23-.67"/><path fill="#fff200" d="M20.13 5.18l.24.67.73.02-.58.43.2.68-.59-.4-.59.4.2-.68-.57-.43.73-.02.23-.67M21 8.47l.23.67.72.02-.58.43.22.68-.6-.4-.6.4.22-.68-.58-.43.72-.02.24-.67"/><path fill="#fff200" d="M21 8.47l.23.67.72.02-.58.43.22.68-.6-.4-.6.4.22-.68-.58-.43.72-.02.24-.67M20.13 11.62l.24.67.73.01-.58.44.2.68-.59-.4-.59.4.2-.68-.57-.44.73-.01.23-.67"/><path fill="#fff200" d="M20.13 11.62l.24.67.73.01-.58.44.2.68-.59-.4-.59.4.2-.68-.57-.44.73-.01.23-.67M17.78 14.02l.24.68.72.01-.58.43.21.69-.6-.41-.59.4.21-.68-.57-.43.72-.01.24-.68"/><path fill="#fff200" d="M17.78 14.02l.24.68.72.01-.58.43.21.69-.6-.41-.59.4.21-.68-.57-.43.72-.01.24-.68M14.56 14.89l.24.67.73.01-.58.44.2.68-.59-.4-.6.4.22-.68-.58-.44.73-.01.23-.67"/><path fill="#fff200" d="M14.56 14.89l.24.67.73.01-.58.44.2.68-.59-.4-.6.4.22-.68-.58-.44.73-.01.23-.67M11.32 14.02l.23.68.73.01-.58.43.21.69-.6-.41-.59.4.21-.68-.57-.43.72-.01.24-.68"/><path fill="#fff200" d="M11.32 14.02l.23.68.73.01-.58.43.21.69-.6-.41-.59.4.21-.68-.57-.43.72-.01.24-.68M8.96 11.62l.24.67.72.01-.57.44.2.68-.59-.4-.6.4.22-.68L8 12.3l.72-.01.24-.67"/><path fill="#fff200" d="M8.96 11.62l.24.67.72.01-.57.44.2.68-.59-.4-.6.4.22-.68L8 12.3l.72-.01.24-.67M8.1 8.47l.24.67.73.02-.58.43.21.68-.6-.4-.59.4.21-.68-.58-.43.73-.02.24-.67"/><path fill="#fff200" d="M8.1 8.47l.24.67.73.02-.58.43.21.68-.6-.4-.59.4.21-.68-.58-.43.73-.02.24-.67"/></svg>