<svg viewBox="0 0 32 23" version="1.1" id="svg82" sodipodi:docname="saxeed.svg" width="32" height="23" inkscape:version="1.1 (ce6663b3b7, 2021-05-25)" xmlns:inkscape="http://www.inkscape.org/namespaces/inkscape" xmlns:sodipodi="http://sodipodi.sourceforge.net/DTD/sodipodi-0.dtd" xmlns="http://www.w3.org/2000/svg" xmlns:svg="http://www.w3.org/2000/svg">
  <sodipodi:namedview id="namedview84" pagecolor="#505050" bordercolor="#eeeeee" borderopacity="1" inkscape:pageshadow="0" inkscape:pageopacity="0" inkscape:pagecheckerboard="0" showgrid="false" inkscape:zoom="22.627417" inkscape:cx="2.6074563" inkscape:cy="13.015184" inkscape:window-width="2488" inkscape:window-height="1376" inkscape:window-x="72" inkscape:window-y="27" inkscape:window-maximized="1" inkscape:current-layer="svg82" fit-margin-top="0" fit-margin-left="0" fit-margin-right="0" fit-margin-bottom="0"/>
  <defs id="defs2">
    <clipPath clipPathUnits="userSpaceOnUse" id="clipPath100">
      <path d="M 1042.82,538.18 196.301,803.227 0,544.945 Z" id="path98"/>
    </clipPath>
    <linearGradient x1="0" y1="0" x2="1" y2="0" gradientUnits="userSpaceOnUse" gradientTransform="matrix(-21.0034,-207.893,-207.893,21.0034,540.308,728.54)" spreadMethod="pad" id="linearGradient108">
      <stop style="stop-opacity:1;stop-color:#162d66" offset="0" id="stop102"/>
      <stop style="stop-opacity:1;stop-color:#162d66" offset="0.132479" id="stop104"/>
      <stop style="stop-opacity:1;stop-color:#254aa5" offset="1" id="stop106"/>
    </linearGradient>
    <clipPath clipPathUnits="userSpaceOnUse" id="clipPath118">
      <path d="M 1068.83,562.348 534.98,1270.45 226.379,1176.68 Z" id="path116"/>
    </clipPath>
    <linearGradient x1="0" y1="0" x2="1" y2="0" gradientUnits="userSpaceOnUse" gradientTransform="matrix(102.9,161.704,161.704,-102.9,660.342,889.526)" spreadMethod="pad" id="linearGradient128">
      <stop style="stop-opacity:1;stop-color:#ed1c24" offset="0" id="stop120"/>
      <stop style="stop-opacity:1;stop-color:#ed1c24" offset="0.149573" id="stop122"/>
      <stop style="stop-opacity:1;stop-color:#c4161d" offset="0.84188" id="stop124"/>
      <stop style="stop-opacity:1;stop-color:#c4161d" offset="1" id="stop126"/>
    </linearGradient>
    <clipPath clipPathUnits="userSpaceOnUse" id="clipPath140">
      <path d="M 1055.12,550.609 330.52,1061.91 65.2813,878.363 Z" id="path138"/>
    </clipPath>
    <linearGradient x1="0" y1="0" x2="1" y2="0" gradientUnits="userSpaceOnUse" gradientTransform="matrix(77.7014,176.408,176.408,-77.7014,551.89,695.61)" spreadMethod="pad" id="linearGradient150">
      <stop style="stop-opacity:1;stop-color:#f1ce04" offset="0" id="stop142"/>
      <stop style="stop-opacity:1;stop-color:#f1ce04" offset="0.179487" id="stop144"/>
      <stop style="stop-opacity:1;stop-color:#d0b103" offset="0.940171" id="stop146"/>
      <stop style="stop-opacity:1;stop-color:#d0b103" offset="1" id="stop148"/>
    </linearGradient>
    <clipPath clipPathUnits="userSpaceOnUse" id="clipPath8331">
      <path d="M 0,141.732 H 198.425 V 0 H 0 Z" id="path8333" inkscape:connector-curvature="0"/>
    </clipPath>
    <clipPath clipPathUnits="userSpaceOnUse" id="clipPath8339">
      <path d="M 0,141.732 H 198.425 V 0 H 0 Z" id="path8341" inkscape:connector-curvature="0"/>
    </clipPath>
  </defs>
  <g id="g8327" transform="matrix(0.16454487,0,0,-0.16860175,-0.42561683,23.310608)">
    <g id="g8329" clip-path="url(#clipPath8331)">
      <g id="g8335">
        <g id="g8337" clip-path="url(#clipPath8339)">
          <path d="m 153.777,77.72 c -3.38,0.105 -8.818,0.105 -13.993,0.105 -0.104,-3.062 -0.104,-6.019 -0.104,-9.398 5.172,0 9.82,0.104 13.568,0.263 v -6.495 c -3.801,0.264 -8.5,0.264 -13.568,0.264 0,-3.748 0,-6.97 0.104,-10.349 5.491,0 11.458,0.053 15.577,0.264 l -2.218,-6.335 h -22.441 c 0.317,7.021 0.423,11.141 0.423,18.269 0,7.709 -0.053,12.039 -0.423,19.588 h 23.075 z m -29.288,0 c -3.379,0.105 -8.817,0.105 -13.992,0.105 -0.106,-3.062 -0.106,-6.019 -0.106,-9.398 5.174,0 9.823,0.104 13.571,0.263 v -6.495 c -3.802,0.264 -8.501,0.264 -13.571,0.264 0,-3.748 0,-6.97 0.106,-10.349 5.491,0 11.459,0.053 15.577,0.264 l -2.219,-6.335 h -22.441 c 0.318,7.021 0.424,11.141 0.424,18.269 0,7.709 -0.054,12.039 -0.424,19.588 h 23.075 z m -94.602,5.069 -2.165,-5.967 c -2.164,1.003 -5.121,1.69 -8.395,1.69 -3.96,0 -5.914,-1.69 -5.914,-3.803 0,-2.111 1.004,-3.432 5.597,-5.28 l 3.22,-1.371 c 5.862,-2.326 8.555,-5.81 8.555,-11.195 0,-6.759 -6.493,-11.405 -14.784,-11.405 -5.017,0 -9.452,0.791 -12.779,2.322 l 2.112,5.967 c 2.904,-1.32 6.759,-2.271 10.085,-2.271 4.119,0 6.284,1.744 6.284,4.172 0,2.271 -1.161,3.801 -5.65,5.597 l -3.96,1.638 c -5.122,2.11 -7.709,5.648 -7.709,10.665 0,5.914 5.967,10.984 14.52,10.984 4.594,0 7.921,-0.529 10.983,-1.743 m 20.92,-6.865 C 49.381,71.859 47.375,66.313 45.368,61.192 h 10.403 c -1.69,5.017 -3.538,10.454 -4.964,14.732 M 39.719,46.039 h -8.448 c 4.328,9.346 11.88,26.823 16.421,38.123 h 8.395 C 59.836,73.337 66.226,57.391 71.294,46.039 H 60.839 c -1.003,2.691 -2.165,6.071 -3.115,9.08 H 43.202 c -1.16,-3.114 -2.427,-6.493 -3.483,-9.08 m 133.734,0 H 159.99 c 0.316,7.021 0.423,11.141 0.423,18.269 0,7.709 -0.054,12.039 -0.423,19.588 h 14.256 c 13.728,0 21.965,-5.807 21.965,-17.583 0,-12.461 -8.501,-20.274 -22.758,-20.274 m -4.381,31.786 c -0.107,-2.798 -0.107,-7.762 -0.107,-12.408 0,-4.7 0,-9.769 0.107,-13.254 0.79,-0.053 2.429,-0.053 3.907,-0.053 8.924,0 14.045,4.806 14.045,13.042 0,8.819 -5.385,12.673 -13.728,12.673 z" style="fill:#045176;fill-opacity:1;fill-rule:nonzero;stroke:none" id="path8343" inkscape:connector-curvature="0"/>
          <path d="m 139.468,98.65 -1.714,0.713 -1.52,0.607 -1.478,0.949 -1.087,1.182 -1.382,1.168 -0.913,1.597 0.012,1.823 -0.076,1.77 0.725,1.705 0.537,1.553 0.439,1.34 c -4.953,4.057 -10.576,7.421 -16.696,9.926 l -0.047,-0.162 -1.208,-1.298 -1.689,-0.611 -1.552,-0.415 -1.704,-0.579 -1.726,-0.277 -1.716,0.713 -1.518,0.606 -1.477,0.95 -1.089,1.18 -1.381,1.168 -0.913,1.597 0.012,1.823 -0.077,1.771 0.726,1.704 0.534,1.555 0.566,1.725 1.521,0.952 1.308,1.192 1.714,0.565 1.725,0.66 1.803,-0.562 1.685,-0.669 1.825,0.045 1.121,-1.441 1.801,-0.643 0.642,-1.666 0.152,-1.741 0.306,-1.79 0.824,-1.726 -1.038,-1.606 -0.109,-0.236 c 6.605,-2.693 12.668,-6.346 17.98,-10.772 l 0.65,0.59 1.711,0.565 1.724,0.663 1.806,-0.563 1.683,-0.668 1.827,0.044 1.119,-1.44 1.801,-0.643 0.642,-1.667 0.155,-1.743 0.304,-1.788 0.824,-1.725 -1.037,-1.608 -0.668,-1.424 -0.509,-1.756 -1.207,-1.299 -1.689,-0.612 -1.553,-0.415 -1.704,-0.578 z m 0.291,-79.231 -1.716,0.714 -1.517,0.606 -0.927,0.595 c -3.296,-2.775 -6.886,-5.25 -10.722,-7.382 0.38,-0.359 0.815,-0.761 1.32,-1.215 1.754,0.045 2.032,-2.45 3.604,-3.005 v -2.35 c -1.924,-3.896 -3.658,-2.295 -4.492,-2.295 -4.341,1.203 -2.786,2.588 -3.847,2.726 -2.174,1.292 -3.216,0.128 -4.463,2.343 -8.206,-3.228 -17.18,-5.03 -26.6,-5.03 -7.145,0 -14.033,1.036 -20.499,2.956 L 69.646,7.541 69.136,5.783 67.928,4.486 66.239,3.874 64.687,3.458 62.983,2.881 61.257,2.602 l -1.716,0.713 -1.518,0.607 -1.478,0.951 -1.088,1.18 -1.382,1.168 -0.913,1.596 0.012,1.824 -0.075,1.77 0.725,1.704 0.535,1.554 0.564,1.725 1.522,0.954 1.309,1.19 1.712,0.565 1.725,0.662 1.803,-0.561 1.684,-0.671 1.827,0.046 1.12,-1.443 1.801,-0.641 0.642,-1.666 0.152,-1.745 0.305,-1.787 0.728,-1.524 C 77.3,9.029 83.73,8.09 90.399,8.09 c 8.683,0 16.961,1.593 24.517,4.482 -0.439,0.603 -0.89,1.18 -1.334,1.554 -1.616,3.05 -3.647,2.913 -5.774,5.732 0,0.504 -2.309,2.12 -2.958,3.508 -0.276,0 -2.079,3.047 -2.494,3.418 -0.876,2.169 -2.076,2.632 -3.692,4.249 -2.172,4.434 -5.914,7.113 -7.714,11.594 -2.217,1.477 -3.558,4.942 -5.31,6.972 -0.783,1.823 -0.831,6.214 -2.631,8.501 -0.074,-0.129 -0.12,-0.198 -0.13,-0.187 -0.093,0.108 -0.175,0.195 -0.261,0.281 -0.88,-1.339 -1.851,-2.583 -2.312,-4.295 -0.631,-1.824 -0.71,-1.983 -1.661,-5.862 -1.108,-2.599 -2.416,-4.335 -2.838,-5.677 -0.089,-1.431 -1.219,-3.151 -1.262,-4.813 -0.951,-1.978 -1.09,-3.349 -2.72,-6.855 -1.308,-1.986 -2.101,-2.698 -3.511,-2.508 -1.293,0.371 -2.375,0.918 -3.509,1.712 -0.555,0.226 -0.416,3.292 -0.416,4.215 1.569,0.648 1.322,3.806 2.014,5.196 0.414,2.676 1.294,3.047 1.571,4.059 1.892,2.912 1.432,5.87 2.635,8.873 1.058,1.246 1.983,2.54 1.983,4.066 1.664,2.816 2.173,5.818 4.531,7.944 0.439,1.675 0.838,2.421 1.059,2.933 L 78.12,67.32 c 0.451,0.989 0.406,1.044 -0.845,3.759 0.232,1.848 -0.737,4.802 -1.615,6.374 -0.601,3.278 -1.339,6.513 -1.387,9.796 -0.415,1.247 -0.368,1.383 0,2.491 -2.448,2.448 0.369,14.827 0.602,19.261 1.154,0.556 1.709,1.108 2.075,1.663 2.356,1.249 4.114,-0.091 4.898,-2.124 h 0.28 c 0.229,-0.831 0.321,-1.156 0.321,-2.078 -0.37,-0.277 -0.062,-1.354 -0.432,-1.63 0.139,-0.646 -0.398,-0.956 0.111,-1.466 -0.602,-1.246 -0.832,-2.68 -1.249,-4.112 0.695,-1.43 1.2,-8.313 0.461,-9.606 0.094,-1.386 0.094,-1.386 0.416,-1.985 0.14,-2.358 -0.369,-3.697 1.156,-6.006 -0.033,-1.03 0.408,-3.182 1.172,-5.041 l 0.733,1.117 c 0.162,-0.027 0.335,-0.044 0.525,-0.044 0.691,1.478 3.047,6.094 4.248,6.605 1.246,3.187 4.667,4.203 5.912,6.651 3.143,2.264 4.298,6.189 7.484,8.082 0.646,0.833 1.201,1.064 1.987,1.527 2.526,1.075 5.359,-1.942 6.187,-3.926 -0.23,-0.832 -1.201,-2.586 -2.169,-2.913 v -0.32 c -0.184,-0.048 -0.369,-0.141 -0.555,-0.186 -0.6,-2.816 -3.279,-1.987 -4.202,-4.664 -0.648,-0.372 -1.248,-1.064 -1.757,-1.802 -3.049,-0.51 -1.987,-2.726 -4.708,-4.297 -0.093,-0.323 -0.184,-0.692 -0.28,-1.016 -2.17,-1.155 -2.218,-0.738 -2.448,-3.28 -0.23,-0.277 -0.509,-0.508 -0.735,-0.782 -2.915,-0.972 -2.22,-3.05 -3.93,-5.131 -1.385,-0.879 -2.448,-1.848 -3.003,-3.509 -0.116,-0.14 -0.22,-0.274 -0.313,-0.399 0.507,-1.63 1.013,-3.183 1.372,-4.075 1.524,-2.264 2.286,-4.215 2.795,-6.939 1.661,-2.033 2.216,-3.787 3.141,-6.376 -0.048,-0.043 0.686,-0.866 0.642,-0.962 0.553,-0.784 0.099,-0.422 0.835,-1.021 2.078,-2.587 2.631,-5.361 5.588,-7.53 2.818,-4.943 6.926,-9.607 10.578,-13.949 0.371,-0.832 0.371,-1.34 1.202,-1.757 0.092,-0.183 5.542,-5.171 5.587,-5.358 2.196,-2.141 2.964,-3.118 3.932,-4.207 3.819,2.062 7.39,4.476 10.66,7.195 l -0.813,0.687 -0.914,1.598 0.013,1.821 -0.076,1.771 0.726,1.704 0.535,1.554 0.565,1.725 1.519,0.953 1.309,1.191 1.714,0.564 1.724,0.664 1.803,-0.562 1.685,-0.671 1.826,0.045 1.121,-1.442 1.801,-0.641 0.642,-1.667 0.151,-1.742 0.304,-1.789 0.827,-1.724 -1.038,-1.609 -0.667,-1.425 -0.51,-1.756 -1.209,-1.298 -1.689,-0.611 -1.552,-0.416 -1.704,-0.578 z m -20.816,86.149 c -0.691,0 -1.294,0.6 -1.294,1.292 0,0.743 0.603,1.296 1.294,1.296 0.739,0 1.291,-0.553 1.291,-1.296 0,-0.692 -0.552,-1.292 -1.291,-1.292 m -4.464,-7.187 c -1.708,0 -3.093,1.388 -3.093,3.047 0,1.71 1.385,3.052 3.093,3.052 1.664,0 3.051,-1.342 3.051,-3.052 0,-1.659 -1.387,-3.047 -3.051,-3.047 m -47.01,-71.709 2.6,-0.87 c -0.924,-0.743 -2.931,-3.366 -4.224,-2.304 -1.479,1.248 -3.142,0.692 -2.865,3.049 0,0.09 0.045,0.139 0.045,0.183 z m 13.107,87.999 c -1.385,0 -2.541,1.153 -2.541,2.54 0,1.385 1.156,2.496 2.541,2.496 1.389,0 2.491,-1.111 2.491,-2.496 0,-1.387 -1.102,-2.54 -2.491,-2.54" style="fill:#6597b1;fill-opacity:1;fill-rule:nonzero;stroke:none" id="path8345" inkscape:connector-curvature="0"/>
          <path d="m 79.791,115.548 c -4.019,0 -3.187,3.003 -1.064,4.525 2.403,-0.645 2.909,-2.909 1.064,-4.525 M 124.408,5.128 c -0.785,0 -2.12,-0.184 -2.954,-0.184 -4.343,1.202 -1.848,2.214 -2.908,2.359 -2.173,1.29 -2.451,0.643 -3.696,2.857 -0.972,0.46 -2.219,2.956 -3.416,3.973 -1.622,3.044 -3.652,2.906 -5.778,5.726 0,0.506 -2.309,2.125 -2.955,3.509 -0.279,0 -2.078,3.049 -2.496,3.421 -0.875,2.17 -2.078,2.63 -3.695,4.248 -2.169,4.432 -5.912,7.114 -7.713,11.594 -2.215,1.478 -3.556,4.94 -5.312,6.975 -0.83,1.94 -0.83,6.79 -2.998,8.914 -0.881,-1.342 -1.853,-2.588 -2.313,-4.297 -1.293,-1.292 -1.662,-3.834 -1.662,-5.866 -0.833,-1.202 -1.525,-1.985 -1.803,-3.557 -0.691,-1.107 -1.431,-1.153 -1.199,-2.676 -0.094,-1.433 -0.647,-2.638 -0.695,-4.299 -1.429,-1.57 -2.17,-4.708 -2.448,-6.924 -1.801,-1.112 -1.801,-1.112 -2.679,-1.435 -1.291,0.369 -2.172,1.708 -3.508,1.708 -0.556,0.233 -1.248,2.219 -1.248,3.14 1.567,0.647 0.648,3.924 1.338,5.313 0.414,2.682 1.295,3.048 1.57,4.066 1.894,2.908 1.433,5.864 2.634,8.87 1.063,1.244 1.989,2.538 1.989,4.061 1.661,2.82 2.167,5.821 4.524,7.945 1.155,4.389 2.031,2.402 0.14,6.514 0.231,1.847 -0.741,4.803 -1.617,6.375 -0.601,3.279 -1.341,6.514 -1.386,9.792 -0.418,1.246 -0.371,1.386 0,2.494 -2.448,2.449 0.37,14.828 0.601,19.261 1.155,0.554 1.706,1.109 2.076,1.663 2.357,1.248 4.112,-0.091 4.898,-2.124 h 0.276 c 0.231,-0.832 0.323,-1.155 0.323,-2.079 -0.369,-0.277 -0.06,-1.351 -0.431,-1.63 0.137,-0.645 -0.399,-0.958 0.108,-1.465 -0.6,-1.247 -0.834,-2.677 -1.248,-4.111 0.694,-1.432 1.202,-8.314 0.464,-9.607 0.092,-1.385 0.092,-1.385 0.415,-1.984 0.138,-2.358 -0.371,-3.696 1.156,-6.007 -0.049,-1.479 0.277,-3.651 2.445,-3.651 0.693,1.48 3.052,6.099 4.251,6.608 1.249,3.186 4.666,4.203 5.912,6.65 3.14,2.261 4.297,6.19 7.484,8.084 0.644,0.832 1.199,1.062 1.986,1.525 2.398,0.414 5.356,-1.943 6.188,-3.927 -0.231,-0.832 -1.198,-2.587 -2.171,-2.908 v -0.327 c -0.182,-0.046 -0.369,-0.137 -0.552,-0.186 -0.601,-2.814 -3.282,-1.984 -4.203,-4.663 -0.647,-0.37 -1.248,-1.062 -1.754,-1.801 -3.05,-0.509 -1.99,-2.725 -4.714,-4.296 -0.091,-0.323 -0.185,-0.693 -0.279,-1.015 -2.169,-1.157 -2.217,-0.74 -2.443,-3.281 -0.235,-0.278 -0.513,-0.508 -0.742,-0.783 -2.909,-0.973 -2.218,-3.049 -3.928,-5.13 -1.384,-0.877 -2.447,-1.849 -3.001,-3.509 -1.756,-2.126 -0.694,-2.45 0.322,-4.988 1.524,-2.265 3.003,-4.02 3.511,-6.744 1.666,-2.033 2.218,-3.789 3.143,-6.375 -0.047,-0.047 0.687,-0.869 0.64,-0.959 0.554,-0.788 0.098,-0.428 0.838,-1.029 2.076,-2.584 2.631,-5.357 5.588,-7.527 2.819,-4.942 6.929,-9.61 10.575,-13.95 0.372,-0.831 0.372,-1.337 1.205,-1.753 0.089,-0.185 5.541,-5.175 5.589,-5.361 3.924,-3.833 2.123,-3.188 6.233,-6.881 1.757,0.044 2.032,-2.451 3.603,-3.002 V 8.13 c -0.183,-1.386 -0.044,-1.939 -1.756,-2.402 -0.045,-0.232 -0.275,-0.323 -0.324,-0.6 m -58.984,23.11 2.819,-1.57 c -0.924,-0.739 -2.542,-2.355 -3.832,-1.296 -1.479,1.248 -3.144,0.696 -2.866,3.05 0,0.095 0.044,0.141 0.044,0.185 z m 53.305,78.92 c -0.048,-0.603 0,-0.603 -0.555,-1.2 -1.522,0.092 -2.725,2.077 -1.34,2.586 0.325,0.139 0.648,0.277 0.973,0.369 0.739,-0.646 0.739,-0.738 0.922,-1.755 m -10.079,14.943 -1.25,0.52 -1.107,0.443 -1.077,0.692 -0.792,0.86 -1.007,0.85 -0.667,1.165 0.01,1.33 -0.057,1.291 0.53,1.241 0.389,1.134 0.412,1.257 1.11,0.695 0.954,0.868 1.248,0.412 1.257,0.482 1.315,-0.41 1.227,-0.487 1.332,0.032 0.816,-1.051 1.313,-0.468 0.467,-1.214 0.113,-1.271 0.221,-1.304 0.603,-1.257 -0.756,-1.171 -0.486,-1.039 -0.373,-1.281 -0.881,-0.947 -1.232,-0.446 -1.132,-0.303 -1.24,-0.42 z m 31.079,-20.991 -1.25,0.521 -1.108,0.442 -1.077,0.692 -0.792,0.861 -1.007,0.85 -0.667,1.166 0.01,1.329 -0.056,1.29 0.53,1.242 0.391,1.133 0.409,1.257 1.111,0.696 0.952,0.867 1.249,0.412 1.26,0.483 1.314,-0.41 1.227,-0.489 1.331,0.033 0.818,-1.05 1.314,-0.467 0.465,-1.216 0.112,-1.27 0.222,-1.304 0.601,-1.257 -0.755,-1.173 -0.488,-1.038 -0.371,-1.28 -0.88,-0.946 -1.232,-0.447 -1.132,-0.302 -1.243,-0.421 z m 0.292,-79.232 -1.25,0.521 -1.107,0.443 -1.078,0.691 -0.793,0.861 -1.007,0.851 -0.666,1.164 0.008,1.33 -0.055,1.29 0.531,1.242 0.388,1.132 0.412,1.258 1.108,0.695 0.956,0.869 1.249,0.412 1.257,0.483 1.314,-0.411 1.229,-0.488 1.331,0.035 0.815,-1.053 1.314,-0.468 0.467,-1.213 0.113,-1.271 0.221,-1.306 0.601,-1.257 -0.754,-1.17 -0.487,-1.039 -0.372,-1.281 -0.881,-0.947 -1.232,-0.444 -1.132,-0.303 -1.24,-0.422 z M 61.518,5.063 l -1.25,0.52 -1.108,0.44 -1.077,0.695 -0.793,0.86 -1.006,0.852 -0.667,1.164 0.008,1.328 -0.054,1.292 0.529,1.242 0.39,1.133 0.411,1.257 1.109,0.695 0.954,0.868 1.249,0.412 1.257,0.482 1.315,-0.41 1.228,-0.488 1.332,0.033 0.816,-1.05 1.312,-0.468 0.468,-1.216 0.113,-1.27 0.222,-1.305 0.599,-1.257 L 68.121,9.7 67.634,8.662 67.262,7.381 66.382,6.435 65.151,5.99 64.018,5.686 62.777,5.265 Z m 49.82,100.201 c 1.71,0.417 2.633,-0.047 2.818,-1.801 0,-0.693 0,-0.693 -0.552,-2.448 -2.911,-1.712 -2.452,-1.385 -4.759,1.293 0.091,1.895 0.925,2.54 2.493,2.956" style="fill:#f47216;fill-opacity:1;fill-rule:nonzero;stroke:none" id="path8347" inkscape:connector-curvature="0"/>
        </g>
      </g>
    </g>
  </g>
</svg>